<svg id="Diesel" xmlns="http://www.w3.org/2000/svg" width="22.086" height="25" viewBox="0 0 22.086 25">
  <path id="Path_124" data-name="Path 124" d="M20.559,20.833a1.227,1.227,0,0,1-1.225,1.225h-.49a1.227,1.227,0,0,1-1.226-1.225v-4.9a2.7,2.7,0,0,0-2.7-2.7h-.245V2.7A2.7,2.7,0,0,0,11.98,0H2.666A2.7,2.7,0,0,0-.03,2.7V24.265A.735.735,0,0,0,.705,25H13.941a.735.735,0,0,0,.735-.735V14.706h.245a1.227,1.227,0,0,1,1.226,1.225v4.9a2.7,2.7,0,0,0,2.7,2.7h.49a2.7,2.7,0,0,0,2.7-2.7c0-4.186.1-8.38-.087-12.56-.109-1.534-.8-1.655-3.684-4.628a.419.419,0,0,0-.572-.03l-.349.342a.391.391,0,0,0-.01.633c1.577,1.571-.248-.256,1.563,1.548a2.189,2.189,0,0,0-1.2,3.022,2.248,2.248,0,0,0,2.871,1.06V20.833ZM10.464,17.544a4.791,4.791,0,0,1-.251,1.647,2.805,2.805,0,0,1-.721,1.116,2.9,2.9,0,0,1-1.144.635,5.61,5.61,0,0,1-1.6.2H5.076a.444.444,0,0,1-.3-.105.432.432,0,0,1-.122-.343V14.6a.431.431,0,0,1,.122-.343.443.443,0,0,1,.3-.105H6.869a5.018,5.018,0,0,1,1.586.219,2.865,2.865,0,0,1,1.1.648,2.8,2.8,0,0,1,.679,1.063,4.233,4.233,0,0,1,.232,1.465Zm-1.472.05a3.519,3.519,0,0,0-.116-.924,1.948,1.948,0,0,0-.373-.738,1.732,1.732,0,0,0-.659-.489,2.691,2.691,0,0,0-1.057-.175H6.07v4.748h.74a2.774,2.774,0,0,0,.983-.151,1.645,1.645,0,0,0,.668-.456,1.978,1.978,0,0,0,.4-.758,3.782,3.782,0,0,0,.133-1.057ZM2.667,1.471H11.98A1.227,1.227,0,0,1,13.206,2.7v7.6H1.441V2.7A1.227,1.227,0,0,1,2.667,1.471ZM13.206,23.53H1.441V11.765H13.206ZM19.659,7.321a.872.872,0,1,1-.872.872A.872.872,0,0,1,19.659,7.321Z" transform="translate(0.03 0)" fill="#0089ff" fill-rule="evenodd"/>
</svg>
