<svg id="Gas" xmlns="http://www.w3.org/2000/svg" width="22.086" height="25" viewBox="0 0 22.086 25">
  <path id="Path_125" data-name="Path 125" d="M20.607,20.833a1.227,1.227,0,0,1-1.225,1.225h-.49a1.227,1.227,0,0,1-1.226-1.225v-4.9a2.7,2.7,0,0,0-2.7-2.7h-.245V2.7A2.7,2.7,0,0,0,12.03,0H2.716A2.7,2.7,0,0,0,.02,2.7V24.265A.735.735,0,0,0,.755,25H13.991a.735.735,0,0,0,.735-.735V14.706h.245A1.227,1.227,0,0,1,16.2,15.931v4.9a2.7,2.7,0,0,0,2.7,2.7h.49a2.7,2.7,0,0,0,2.7-2.7c0-4.187.1-8.38-.087-12.56-.109-1.534-.8-1.655-3.684-4.628a.419.419,0,0,0-.572-.03l-.35.342a.391.391,0,0,0-.01.633c1.577,1.571-.248-.256,1.562,1.549a2.189,2.189,0,0,0-1.2,3.022,2.248,2.248,0,0,0,2.871,1.06V20.833Zm-10.247-5.6a2.275,2.275,0,0,1-.013.269.834.834,0,0,1-.039.181.188.188,0,0,1-.059.094.131.131,0,0,1-.083.027.522.522,0,0,1-.227-.1,3.426,3.426,0,0,0-.417-.212,4.425,4.425,0,0,0-.618-.212,3.221,3.221,0,0,0-.835-.1,2.318,2.318,0,0,0-.917.175,2.007,2.007,0,0,0-.7.5A2.244,2.244,0,0,0,6,16.637a3.009,3.009,0,0,0-.157,1A3.255,3.255,0,0,0,6,18.694a2.185,2.185,0,0,0,.447.765,1.872,1.872,0,0,0,.69.465,2.43,2.43,0,0,0,.889.157,2.131,2.131,0,0,0,.47-.054,1.73,1.73,0,0,0,.434-.164V18.233H7.61c-.065,0-.114-.041-.151-.122a1.135,1.135,0,0,1-.054-.413,1.943,1.943,0,0,1,.013-.253.681.681,0,0,1,.041-.164.248.248,0,0,1,.065-.092.137.137,0,0,1,.087-.03H9.972a.365.365,0,0,1,.153.03.332.332,0,0,1,.12.09.393.393,0,0,1,.078.142.625.625,0,0,1,.027.194V20.4a.652.652,0,0,1-.057.284.4.4,0,0,1-.233.192c-.116.048-.262.1-.435.148s-.352.094-.539.129a5.134,5.134,0,0,1-.563.081q-.282.028-.57.027a4.388,4.388,0,0,1-1.5-.241,2.945,2.945,0,0,1-1.825-1.811,4.7,4.7,0,0,1,.016-3.034,3.24,3.24,0,0,1,.734-1.164,3.172,3.172,0,0,1,1.149-.732,4.2,4.2,0,0,1,1.5-.255,4.935,4.935,0,0,1,.828.063,4.648,4.648,0,0,1,.651.153,2.542,2.542,0,0,1,.461.192,1.125,1.125,0,0,1,.256.181.423.423,0,0,1,.1.214,1.851,1.851,0,0,1,.033.408ZM2.715,1.471h9.314A1.226,1.226,0,0,1,13.254,2.7v7.6H1.489V2.7A1.226,1.226,0,0,1,2.715,1.471ZM13.254,23.53H1.49V11.765H13.254ZM19.708,7.321a.872.872,0,1,1-.872.872A.872.872,0,0,1,19.708,7.321Z" transform="translate(-0.02 0)" fill="#0089ff" fill-rule="evenodd"/>
</svg>
