<svg xmlns="http://www.w3.org/2000/svg" width="36.698" height="46.642" viewBox="0 0 36.698 46.642">
  <g id="ApplePay" transform="translate(-214 -657)">
    <path id="Apple_x0020_pay.svg" d="M27.4,0a9.972,9.972,0,0,0-6.735,3.615,10.287,10.287,0,0,0-2.428,7.331C20.818,11.17,23.4,9.6,25.02,7.6A10.945,10.945,0,0,0,27.4,0Zm-.3,12.344c-3.773,0-6.468,2.056-8.232,2.056-1.789,0-4.46-2.032-7.545-2.032A11.2,11.2,0,0,0,1.9,18.186c-4,6.9-1.035,17.118,2.833,22.737C6.629,43.7,8.918,46.642,12,46.642c2.828-.1,3.787-1.717,7.2-1.717,3.439,0,4.46,1.717,7.545,1.717s4.956-2.828,6.849-5.609a24.239,24.239,0,0,0,3.1-6.391,10.082,10.082,0,0,1-6.029-9.177,10.278,10.278,0,0,1,4.879-8.609,10.56,10.56,0,0,0-8.113-4.507H27.09Z" transform="translate(214.001 657)" fill="#fefefe" fill-rule="evenodd"/>
  </g>
</svg>
