<svg xmlns="http://www.w3.org/2000/svg" xmlns:xlink="http://www.w3.org/1999/xlink" width="280" height="72" viewBox="0 0 280 72">
  <defs>
    <filter id="Rectangle_" x="0" y="0" width="280" height="72" filterUnits="userSpaceOnUse">
      <feOffset input="SourceAlpha"/>
      <feGaussianBlur stdDeviation="4" result="blur"/>
      <feFlood flood-opacity="0.161"/>
      <feComposite operator="in" in2="blur"/>
      <feComposite in="SourceGraphic"/>
    </filter>
  </defs>
  <g id="Card_nfo_Panel" data-name="Card nfo Panel" transform="translate(-48 -143)">
    <g transform="matrix(1, 0, 0, 1, 48, 143)" filter="url(#Rectangle_)">
      <rect id="Rectangle_2" data-name="Rectangle " width="256" height="48" rx="12" transform="translate(12 12)" fill="#fff"/>
    </g>
    <g id="Card_Info" data-name="Card Info" transform="translate(0 -6)">
      <text id="Date" transform="translate(267 189)" font-size="9" font-family="SegoeUI, Segoe UI" opacity="0.65"><tspan x="0" y="0">04/21</tspan></text>
      <g id="Number" transform="translate(5 -1)">
        <text id="_9271" data-name="9271" transform="translate(209 190)" font-size="9" font-family="SegoeUI, Segoe UI" opacity="0.65"><tspan x="0" y="0">9271</tspan></text>
        <g id="_3rd_Set" data-name="3rd Set">
          <circle id="Ellipse_26" data-name="Ellipse 26" cx="2.5" cy="2.5" r="2.5" transform="translate(183 183)" fill="#595959"/>
          <circle id="Ellipse_27" data-name="Ellipse 27" cx="2.5" cy="2.5" r="2.5" transform="translate(176 183)" fill="#595959"/>
          <circle id="Ellipse_28" data-name="Ellipse 28" cx="2.5" cy="2.5" r="2.5" transform="translate(190 183)" fill="#595959"/>
          <circle id="Ellipse_29" data-name="Ellipse 29" cx="2.5" cy="2.5" r="2.5" transform="translate(197 183)" fill="#595959"/>
        </g>
        <g id="_2nd_Set" data-name="2nd Set" transform="translate(-33)">
          <circle id="Ellipse_26-2" data-name="Ellipse 26" cx="2.5" cy="2.5" r="2.5" transform="translate(183 183)" fill="#595959"/>
          <circle id="Ellipse_27-2" data-name="Ellipse 27" cx="2.5" cy="2.5" r="2.5" transform="translate(176 183)" fill="#595959"/>
          <circle id="Ellipse_28-2" data-name="Ellipse 28" cx="2.5" cy="2.5" r="2.5" transform="translate(190 183)" fill="#595959"/>
          <circle id="Ellipse_29-2" data-name="Ellipse 29" cx="2.5" cy="2.5" r="2.5" transform="translate(197 183)" fill="#595959"/>
        </g>
        <g id="_1st_Set" data-name="1st Set" transform="translate(-66)">
          <circle id="Ellipse_26-3" data-name="Ellipse 26" cx="2.5" cy="2.5" r="2.5" transform="translate(183 183)" fill="#595959"/>
          <circle id="Ellipse_27-3" data-name="Ellipse 27" cx="2.5" cy="2.5" r="2.5" transform="translate(176 183)" fill="#595959"/>
          <circle id="Ellipse_28-3" data-name="Ellipse 28" cx="2.5" cy="2.5" r="2.5" transform="translate(190 183)" fill="#595959"/>
          <circle id="Ellipse_29-3" data-name="Ellipse 29" cx="2.5" cy="2.5" r="2.5" transform="translate(197 183)" fill="#595959"/>
        </g>
      </g>
      <g id="Type_Of_Card" data-name="Type Of Card">
        <g id="MasterCard_Logo" data-name="MasterCard Logo" transform="translate(74 174)" opacity="0.7">
          <ellipse id="Ellipse_24" data-name="Ellipse 24" cx="7.947" cy="7.947" rx="7.947" ry="7.947" fill="#727271"/>
          <ellipse id="Ellipse_25" data-name="Ellipse 25" cx="7.947" cy="7.947" rx="7.947" ry="7.947" transform="translate(9.873)" fill="#9d9e9e"/>
          <path id="Path_169" data-name="Path 169" d="M207.36,42.347a7.931,7.931,0,0,0,3.01,6.227,7.946,7.946,0,0,0,0-12.454A7.932,7.932,0,0,0,207.36,42.347Z" transform="translate(-197.487 -34.4)" fill="#898989" fill-rule="evenodd"/>
          <path id="Path_170" data-name="Path 170" d="M7.556,383.87a.963.963,0,0,0-.857.567.815.815,0,0,0-.744-.567.842.842,0,0,0-.754.431v-.2c0-.113-.125-.192-.267-.192-.176,0-.3.079-.3.192v.945q.285.41.6.8v-.854a.541.541,0,0,1,.528-.59.548.548,0,0,1,.527.585V386.4c0,.136.159.192.3.192.154,0,.3-.057.3-.192v-1.425a.534.534,0,1,1,1.062.011V386.4c0,.1.141.2.3.2s.3-.1.3-.2v-1.407a1.021,1.021,0,0,0-.988-1.118Z" transform="translate(-4.419 -365.592)" fill="#898989" fill-rule="evenodd"/>
          <path id="Path_171" data-name="Path 171" d="M96.717,383.87c-.386,0-.857.159-.857.363,0,.136.074.3.216.3.113,0,.216-.17.63-.17a.553.553,0,0,1,.562.613v.1h-.25c-.788,0-1.327.17-1.327.812a.7.7,0,0,0,.754.749,1.113,1.113,0,0,0,.857-.442v.2c0,.108.119.2.272.2s.289-.09.289-.2v-1.425a1.033,1.033,0,0,0-1.147-1.1Zm.55,1.747a.66.66,0,0,1-.607.568.337.337,0,0,1-.369-.369c0-.363.4-.409.834-.409h.142v.21Z" transform="translate(-91.134 -365.592)" fill="#898989" fill-rule="evenodd"/>
          <path id="Path_172" data-name="Path 172" d="M151.336,384.659c0-.141.125-.329.459-.329.319,0,.494.165.613.165.142,0,.227-.2.227-.29,0-.182-.425-.335-.851-.335-.715,0-.97.425-.97.817,0,.942,1.368.59,1.368,1.186,0,.153-.108.307-.483.307-.488,0-.607-.261-.755-.261-.12,0-.2.165-.2.267,0,.216.415.454.976.454.641,0,1-.307,1-.789,0-1.021-1.379-.692-1.379-1.192Z" transform="translate(-143.563 -365.592)" fill="#898989" fill-rule="evenodd"/>
          <path id="Path_173" data-name="Path 173" d="M203.292,362.131h-.2c-.3,0-.4-.1-.4-.375v-1.362h.692c.1,0,.165-.108.165-.221s-.063-.221-.165-.221H202.7v-1.039c0-.113-.154-.192-.3-.192s-.3.08-.3.192v2.843c0,.619.346.885.993.885h.2a.255.255,0,0,0,0-.51Z" transform="translate(-192.477 -341.64)" fill="#898989" fill-rule="evenodd"/>
          <path id="Path_174" data-name="Path 174" d="M241.316,385.941c-.153,0-.289.216-.692.216-.438,0-.738-.238-.738-.618v-.131h1.2c.256,0,.517-.017.517-.488a1.077,1.077,0,0,0-1.129-1.049,1.15,1.15,0,0,0-1.18,1.1v.539a1.176,1.176,0,0,0,1.317,1.129c.573,0,.942-.261.942-.431,0-.1-.091-.267-.233-.267Zm-1.43-1.084a.577.577,0,0,1,1.152.011c0,.136-.045.17-.21.17h-.942v-.181h0Z" transform="translate(-227.896 -365.592)" fill="#898989" fill-rule="evenodd"/>
          <path id="Path_175" data-name="Path 175" d="M299.394,383.87h-.182a.842.842,0,0,0-.72.476v-.25c0-.113-.125-.192-.272-.192-.17,0-.289.079-.289.192v2.3c0,.1.12.2.289.2s.307-.1.307-.2v-1.163a.758.758,0,0,1,.687-.834h.182a.266.266,0,0,0,0-.527Z" transform="translate(-283.744 -365.592)" fill="#898989" fill-rule="evenodd"/>
          <path id="Path_176" data-name="Path 176" d="M340.751,385.924c-.13,0-.221.188-.6.188a.548.548,0,0,1-.63-.6V385a.549.549,0,0,1,.624-.6c.364,0,.466.176.585.176.142,0,.239-.176.239-.289,0-.2-.352-.414-.868-.414A1.056,1.056,0,0,0,338.93,385v.511a1.052,1.052,0,0,0,1.18,1.129c.522,0,.9-.232.9-.431a.282.282,0,0,0-.256-.284Z" transform="translate(-322.792 -365.592)" fill="#898989" fill-rule="evenodd"/>
          <path id="Path_177" data-name="Path 177" d="M389.057,383.87c-.386,0-.857.159-.857.363,0,.136.074.3.216.3.114,0,.216-.17.63-.17a.553.553,0,0,1,.562.613v.1h-.25c-.788,0-1.327.17-1.327.812a.7.7,0,0,0,.755.749,1.112,1.112,0,0,0,.857-.442v.2c0,.108.119.2.272.2s.289-.09.289-.2v-1.425a1.033,1.033,0,0,0-1.147-1.1Zm.55,1.747a.66.66,0,0,1-.607.568.337.337,0,0,1-.369-.369c0-.363.4-.409.834-.409h.142v.21h0Z" transform="translate(-369.554 -365.592)" fill="#898989" fill-rule="evenodd"/>
          <path id="Path_178" data-name="Path 178" d="M447.894,383.87h-.181a.841.841,0,0,0-.72.476v-.25c0-.113-.125-.192-.272-.192-.17,0-.289.079-.289.192v2.3c0,.1.119.2.289.2s.307-.1.307-.2v-1.163a.758.758,0,0,1,.687-.834h.181a.266.266,0,0,0,0-.527Z" transform="translate(-425.174 -365.592)" fill="#898989" fill-rule="evenodd"/>
          <path id="Path_179" data-name="Path 179" d="M489.234,350.97c-.17,0-.3.079-.3.192v1.8a.842.842,0,0,0-.738-.431,1.076,1.076,0,0,0-1.016,1.117v.522a1.1,1.1,0,0,0,1,1.129c.027,0,.052,0,.078,0a15.423,15.423,0,0,0,1.272-1.593v-2.546c0-.113-.125-.192-.3-.192Zm-.3,3.336a.644.644,0,0,1-.585.471.608.608,0,0,1-.573-.6v-.522a.606.606,0,0,1,.579-.59.58.58,0,0,1,.578.59Z" transform="translate(-463.983 -334.259)" fill="#898989" fill-rule="evenodd"/>
          <path id="Path_180" data-name="Path 180" d="M492.839,406.986v.1a1.755,1.755,0,0,1-.011.62c-.179.8-1.022.555-1.548.017a.891.891,0,0,0,.8.924.981.981,0,0,0,.789-.442v.2c0,.108.119.2.272.2s.289-.09.289-.2V406.98Z" transform="translate(-467.888 -387.602)" fill="#898989" fill-rule="evenodd"/>
          <path id="Path_181" data-name="Path 181" d="M4.64,397.91v1.419c0,.136.159.192.3.192.154,0,.3-.057.3-.192V397.9C5.059,397.4,4.779,397.191,4.64,397.91Z" transform="translate(-4.419 -378.52)" fill="#898989" fill-rule="evenodd"/>
        </g>
      </g>
    </g>
  </g>
</svg>
