<svg id="Layer_1" data-name="Layer 1" xmlns="http://www.w3.org/2000/svg" viewBox="0 0 250.64 93.55"><defs><style>.cls-1,.cls-3{fill:#fff;}.cls-2{fill:#ef5a93;}.cls-2,.cls-3{fill-rule:evenodd;}</style></defs><title>logo</title><path class="cls-1" d="M480.42,311.79H467.07v10.28h15.87v5.54H459.85v-36h23v5.56H467.07v9.05h13.35Z" transform="translate(-370.52 -263.45)"/><path class="cls-1" d="M485,314.46q0-6.33,2.73-10.22a8.89,8.89,0,0,1,7.71-3.88,7.47,7.47,0,0,1,3.61.87,8.65,8.65,0,0,1,2.82,2.47V291.61h7.24v36H503l-.61-3.29a9.08,9.08,0,0,1-3,2.84,7.89,7.89,0,0,1-4,1,9,9,0,0,1-7.66-3.61c-1.82-2.4-2.73-5.59-2.73-9.54Zm7.2.52a10.88,10.88,0,0,0,1.18,5.52,4.14,4.14,0,0,0,3.86,2,5.6,5.6,0,0,0,2.72-.63,5.1,5.1,0,0,0,1.91-1.84v-11.4a5.62,5.62,0,0,0-1.9-2,5,5,0,0,0-2.68-.7,4.08,4.08,0,0,0-3.87,2.34,13.25,13.25,0,0,0-1.22,6.14Z" transform="translate(-370.52 -263.45)"/><path class="cls-1" d="M522.44,322.07h12.7v5.54H515.22v-36h7.22Z" transform="translate(-370.52 -263.45)"/><path class="cls-1" d="M546.46,297.39h-7.22V292h7.22Zm0,30.22h-7.22V300.86h7.22Z" transform="translate(-370.52 -263.45)"/><path class="cls-1" d="M550.81,314.46q0-6.33,2.74-10.22a8.92,8.92,0,0,1,7.72-3.88,7.52,7.52,0,0,1,4,1,8.84,8.84,0,0,1,2.92,2.89l.57-3.41h6.21v26.63a9.92,9.92,0,0,1-3.42,8.07q-3.4,2.87-9.52,2.86a18.21,18.21,0,0,1-4.3-.56,19.33,19.33,0,0,1-4.2-1.52l1.21-5.39a16.16,16.16,0,0,0,3.42,1.2,17.14,17.14,0,0,0,3.82.41,6.44,6.44,0,0,0,4.37-1.24,4.9,4.9,0,0,0,1.4-3.86V325a8.08,8.08,0,0,1-2.8,2.3,8.19,8.19,0,0,1-3.68.79,9.08,9.08,0,0,1-7.67-3.61c-1.83-2.4-2.74-5.59-2.74-9.54ZM558,315a11,11,0,0,0,1.17,5.52,4.1,4.1,0,0,0,3.85,2,5.85,5.85,0,0,0,2.8-.61,4.67,4.67,0,0,0,1.85-1.76v-11.6a5,5,0,0,0-1.85-1.91,5.41,5.41,0,0,0-2.75-.66,4.05,4.05,0,0,0-3.86,2.34,13.39,13.39,0,0,0-1.21,6.14Z" transform="translate(-370.52 -263.45)"/><path class="cls-1" d="M587,304.24a9.12,9.12,0,0,1,3.09-2.85,8.09,8.09,0,0,1,4.06-1,8.2,8.2,0,0,1,6.56,2.78c1.59,1.86,2.39,4.72,2.39,8.6v15.87h-7.22V311.69a7.48,7.48,0,0,0-1-4.42,3.58,3.58,0,0,0-3-1.29,7.12,7.12,0,0,0-2.88.53,5,5,0,0,0-2,1.52v19.58h-7.22v-36H587Z" transform="translate(-370.52 -263.45)"/><path class="cls-1" d="M616.23,291.61v9.25h4.53v5.07h-4.53v13.62a3.11,3.11,0,0,0,.66,2.23,2.31,2.31,0,0,0,1.72.66,7.1,7.1,0,0,0,1-.06,7.72,7.72,0,0,0,1-.21l.59,5.22A15,15,0,0,1,619,328a13,13,0,0,1-2.24.18,7.7,7.7,0,0,1-5.75-2.05q-2-2.06-2-6.5V305.93h-3.91v-5.07H609v-9.25Z" transform="translate(-370.52 -263.45)"/><path class="cls-2" d="M405.37,263.45a34.85,34.85,0,0,1,9.25,68.45l-9.53,2.6-6,1.66c-1.13.3-2.08.62-2.08,2.08,0,2,1.74,2.22,3.17,1.88,2.07-.49,4.36-1.19,8.45-2.35,1.87-.52,5.7-1.58,7.43-1.58a7.53,7.53,0,0,1,7.54,7.51c0,3.83-1.94,5.87-5.32,6.88-2.75.82-18.73,5.54-21.53,6.32a2.61,2.61,0,0,1-3.3-2.51v-.2a2.57,2.57,0,0,1,1.92-2.51l.88-.24,19.81-5.72c1.13-.3,2.08-.62,2.08-2.08,0-2-1.73-2.22-3.17-1.88-4.7,1.11-12.32,3.93-15.88,3.93a7.55,7.55,0,0,1-7.54-7.5c0-3.84,1.94-5.87,5.33-6.89,5.48-1.64,10.31-3,16.47-4.69,21.47-6,28.72-33.17,12.8-49.1A29.4,29.4,0,0,0,383.53,318c.92,1,1.17,1.7,2.46,2.35a3.87,3.87,0,0,0,5.57-3v-4a13.78,13.78,0,0,1,4.06-9.76c8.73-8.73,23.56-2.41,23.56,9.76v1.49a2.25,2.25,0,0,1-2.25,2.25H416a2.25,2.25,0,0,1-2.25-2.25v-1.49a8.36,8.36,0,0,0-14.25-5.9c-2.82,2.82-2.51,5.85-2.44,9.43a9.32,9.32,0,0,1-9.31,9.31c-4.22,0-6.39-2.37-8.86-5.26a34.85,34.85,0,0,1,26.5-57.49Z" transform="translate(-370.52 -263.45)"/><path class="cls-3" d="M396.57,288.08l-.14-3.87a39.36,39.36,0,0,1,6.52.31c-1.38-2.84-2.29-4.81-2.71-5.91l3.57-1.3a62.4,62.4,0,0,1,1.64,6.28,44.07,44.07,0,0,1,4.92-4.45l2.39,3.06a32,32,0,0,1-5.59,3.59,43.54,43.54,0,0,1,5.89,3.1L410.88,292a61.63,61.63,0,0,1-5.27-4.05,42.33,42.33,0,0,1-1.28,6.44l-3.64-1a54.26,54.26,0,0,1,2.37-6.11Q399.69,287.81,396.57,288.08Z" transform="translate(-370.52 -263.45)"/></svg>