<svg xmlns="http://www.w3.org/2000/svg" width="15.081" height="25.5" viewBox="0 0 15.081 25.5">
  <g id="Charging" transform="translate(0.25 0.25)">
    <g id="Group_214" data-name="Group 214" transform="translate(0 0)">
      <g id="Group_213" data-name="Group 213">
        <path id="Path_199" data-name="Path 199" d="M85.57,4.744a.615.615,0,0,0-.611.611l.058,14.523v.058a3.9,3.9,0,1,1-7.8,0v-4.8a5.028,5.028,0,0,0,2.91-1.426,4.972,4.972,0,0,0,1.455-3.522V6.577A1.828,1.828,0,0,0,81.059,5.3a1.769,1.769,0,0,0-.7-.437V1.368a1.388,1.388,0,0,0-.407-.96A1.32,1.32,0,0,0,78.992,0H78.5a1.388,1.388,0,0,0-.96.407,1.32,1.32,0,0,0-.407.96V4.773h-.96V1.368a1.388,1.388,0,0,0-.407-.96A1.32,1.32,0,0,0,74.8,0h-.495a1.388,1.388,0,0,0-.96.407,1.32,1.32,0,0,0-.407.96V4.831a1.762,1.762,0,0,0-.815.466A1.828,1.828,0,0,0,71.6,6.577v3.58a4.972,4.972,0,0,0,1.455,3.522,5.028,5.028,0,0,0,2.91,1.426v4.8a5.082,5.082,0,0,0,1.484,3.609A5.206,5.206,0,0,0,81.059,25a5.081,5.081,0,0,0,3.609-1.484,5.206,5.206,0,0,0,1.484-3.609v-.058l.029-14.494A.6.6,0,0,0,85.57,4.744ZM78.323,1.368c0-.058,0-.087.029-.116.029,0,.087-.029.116-.029h.495c.029,0,.058.029.087.029,0,.029.029.087.029.116V4.773h-.757Zm-4.191,0c0-.058,0-.087.029-.116a.293.293,0,0,1,.087-.029h.495a.151.151,0,0,1,.116.058.293.293,0,0,1,.029.087V4.773h-.757ZM73.9,12.835a3.738,3.738,0,0,1-1.106-2.648V6.577a.6.6,0,0,1,.611-.611h6.286a.6.6,0,0,1,.611.611v3.609A3.79,3.79,0,0,1,79.2,12.835a3.738,3.738,0,0,1-2.648,1.106A3.67,3.67,0,0,1,73.9,12.835Z" transform="translate(-71.6 0)" fill="#0089ff" stroke="#0089ff" stroke-width="0.5"/>
        <path id="Path_200" data-name="Path 200" d="M123.332,104h-1.6a.219.219,0,0,0-.2.146l-.728,2.27v.087a.2.2,0,0,0,.2.2h.437l-.466,1.8a.226.226,0,0,0,.058.233.224.224,0,0,0,.291-.029l2.066-2.416c.029-.058.058-.087.058-.146a.2.2,0,0,0-.2-.2h-.582l.844-1.63a.175.175,0,0,0,.029-.116A.2.2,0,0,0,123.332,104Z" transform="translate(-117.22 -96.433)" fill="#0089ff" stroke="#0089ff" stroke-width="0.5"/>
      </g>
    </g>
  </g>
</svg>
