<svg xmlns="http://www.w3.org/2000/svg" width="35" height="35" viewBox="0 0 35 35">
  <g id="Coffee_Icon" data-name="Coffee Icon" transform="translate(-201 -277)">
    <g id="Group_68" data-name="Group 68" transform="translate(201 289.643)">
      <g id="Group_67" data-name="Group 67">
        <path id="Path_85" data-name="Path 85" d="M34.316,177.4H28.711V176a.674.674,0,0,0-.684-.664H13.262a.664.664,0,1,0,0,1.328H27.344v5.091a12.588,12.588,0,0,1-6.427,10.891H7.794a12.588,12.588,0,0,1-6.427-10.891v-5.091h4.58a.664.664,0,1,0,0-1.328H.684A.674.674,0,0,0,0,176v5.755a13.627,13.627,0,0,0,2.009,7.118,14.148,14.148,0,0,0,3.382,3.773H.684a.674.674,0,0,0-.684.664,4.454,4.454,0,0,0,4.512,4.383H25.84a4.454,4.454,0,0,0,4.512-4.383.674.674,0,0,0-.684-.664H23.32a14.171,14.171,0,0,0,3.165-3.431h1.93a6.5,6.5,0,0,0,6.585-6.4v-4.748A.674.674,0,0,0,34.316,177.4ZM28.91,193.971a3.131,3.131,0,0,1-3.07,2.391H4.512a3.131,3.131,0,0,1-3.07-2.391H28.91Zm-.2-12.219v-.365H30.9v1.428a2.452,2.452,0,0,1-2.484,2.413h-.155A13.6,13.6,0,0,0,28.711,181.752Zm4.922,1.063a5.151,5.151,0,0,1-5.218,5.069H27.251a13.655,13.655,0,0,0,.584-1.328h.58a3.8,3.8,0,0,0,3.851-3.741v-2.092a.674.674,0,0,0-.684-.664H28.711v-1.328h4.922Z" transform="translate(0 -175.333)" fill="#fff"/>
      </g>
    </g>
    <g id="Group_70" data-name="Group 70" transform="translate(213.925 277)">
      <g id="Group_69" data-name="Group 69">
        <path id="Path_86" data-name="Path 86" d="M190.641,3.675l-.345-.434a1.731,1.731,0,0,1,0-2.164.664.664,0,0,0-1.04-.826,3.053,3.053,0,0,0,0,3.817l.346.434a2.262,2.262,0,0,1,0,2.829l-.354.446a.664.664,0,1,0,1.04.826l.354-.446A3.584,3.584,0,0,0,190.641,3.675Z" transform="translate(-188.585 0)" fill="#fff"/>
      </g>
    </g>
    <g id="Group_72" data-name="Group 72" transform="translate(217.724 278.493)">
      <g id="Group_71" data-name="Group 71">
        <path id="Path_87" data-name="Path 87" d="M246.07,26.159l-.346-.434a1.731,1.731,0,0,1,0-2.164.664.664,0,1,0-1.04-.826,3.053,3.053,0,0,0,0,3.818l.345.434a2.262,2.262,0,0,1,0,2.829l-.354.446a.664.664,0,1,0,1.04.826l.354-.446A3.585,3.585,0,0,0,246.07,26.159Z" transform="translate(-244.014 -22.484)" fill="#fff"/>
      </g>
    </g>
    <g id="Group_74" data-name="Group 74" transform="translate(210.126 278.493)">
      <g id="Group_73" data-name="Group 73">
        <path id="Path_88" data-name="Path 88" d="M135.212,26.16l-.346-.434a1.731,1.731,0,0,1,0-2.164.664.664,0,0,0-1.04-.826,3.053,3.053,0,0,0,0,3.818l.346.434a2.262,2.262,0,0,1,0,2.829l-.354.446a.664.664,0,1,0,1.04.826l.354-.446A3.585,3.585,0,0,0,135.212,26.16Z" transform="translate(-133.156 -22.485)" fill="#fff"/>
      </g>
    </g>
    <g id="Group_76" data-name="Group 76" transform="translate(210.117 289)">
      <g id="Group_75" data-name="Group 75">
        <path id="Path_89" data-name="Path 89" d="M134.344,175.525a.665.665,0,1,0,.195.47A.669.669,0,0,0,134.344,175.525Z" transform="translate(-133.21 -175.33)" fill="#fff"/>
      </g>
    </g>
    <g id="Group_78" data-name="Group 78" transform="translate(222.127 295.079)">
      <g id="Group_77" data-name="Group 77">
        <path id="Path_90" data-name="Path 90" d="M311.394,262a.664.664,0,0,0-.664.664,9.514,9.514,0,0,1-2.743,6.646.664.664,0,1,0,.943.935,10.852,10.852,0,0,0,3.128-7.581A.664.664,0,0,0,311.394,262Z" transform="translate(-307.795 -262)" fill="#fff"/>
      </g>
    </g>
    <g id="Group_80" data-name="Group 80" transform="translate(219.817 303.975)">
      <g id="Group_79" data-name="Group 79">
        <path id="Path_91" data-name="Path 91" d="M276.2,394.474a.664.664,0,0,0-.9-.252l-.015.009a.664.664,0,1,0,.652,1.157l.015-.009A.664.664,0,0,0,276.2,394.474Z" transform="translate(-274.945 -394.136)" fill="#fff"/>
      </g>
    </g>
  </g>
</svg>
