<svg xmlns="http://www.w3.org/2000/svg" width="20.877" height="21" viewBox="0 0 20.877 21">
  <g id="Edit_Button" data-name="Edit Button" transform="translate(-0.001 0.002)">
    <path id="XMLID_185_" d="M17.688.55C16.5-.636,15.222.316,14.259,1.279a4.8,4.8,0,0,0-1.205,2.2l-9.97,9.97a.52.52,0,0,0-.107.157L.045,20.275a.516.516,0,0,0,.68.68l6.667-2.932a.517.517,0,0,0,.157-.107l3.469-3.469a.516.516,0,0,0-.729-.729l-3.1,3.1L6.046,15.683l9.606-9.606L16.79,7.216l-3.222,3.222a.516.516,0,0,0,.729.729l3.222-3.222a4.958,4.958,0,0,0,2.224-1.183c.763-.763,1.729-2.428.662-3.5L17.689.55ZM3.617,14.713l2.669,2.669-1.673.736L2.882,16.386l.736-1.673ZM2.436,17.4,3.6,18.563l-2.078.914L2.436,17.4Zm2.88-2.445L4.178,13.815l9.606-9.606,1.139,1.139ZM19.665,3.985a.919.919,0,0,1,.271.654A5.036,5.036,0,0,1,19,6.022c-.361.361-1.279.67-1.639.309L14.669,3.636c-.361-.361-.03-1.257.331-1.617.18-.18,1.079-1,1.316-1a.922.922,0,0,1,.654.271l2.694,2.694Z" transform="translate(0 0)" fill="#0089ff" fill-rule="evenodd"/>
    <path id="XMLID_1411_" d="M475.224,481.3a.5.5,0,1,0,.357.148A.506.506,0,0,0,475.224,481.3Z" transform="translate(-462.935 -469.355)" fill="#0089ff" fill-rule="evenodd"/>
  </g>
</svg>
