<svg id="Group_397" data-name="Group 397" xmlns="http://www.w3.org/2000/svg" width="37" height="37" viewBox="0 0 37 37">
  <circle id="Blue_14_Circle" data-name="Blue 14% Circle" cx="18.5" cy="18.5" r="18.5" fill="#0089ff" opacity="0.14"/>
  <g id="Microphone_Icon" data-name="Microphone Icon" transform="translate(10.688 6)">
    <g id="Group_31" data-name="Group 31" transform="translate(0 12.538)">
      <g id="Group_30" data-name="Group 30" transform="translate(0)">
        <path id="Path_71" data-name="Path 71" d="M94.33,210.255a.883.883,0,0,0-1.764,0,6.238,6.238,0,0,1-12.466,0,.883.883,0,0,0-1.764,0,7.8,7.8,0,0,0,7.115,7.652v2.259h-3.2a.848.848,0,1,0,0,1.694h8.173a.848.848,0,1,0,0-1.694h-3.2v-2.259A7.8,7.8,0,0,0,94.33,210.255Z" transform="translate(-78.336 -209.408)" fill="#0089ff"/>
      </g>
    </g>
    <g id="Group_33" data-name="Group 33" transform="translate(3.282)">
      <g id="Group_32" data-name="Group 32">
        <path id="Path_72" data-name="Path 72" d="M136.811,0A4.724,4.724,0,0,0,132.1,4.715v7.652a4.715,4.715,0,1,0,9.431.028V4.715A4.724,4.724,0,0,0,136.811,0Z" transform="translate(-132.096)" fill="#0089ff"/>
      </g>
    </g>
  </g>
</svg>
