<svg xmlns="http://www.w3.org/2000/svg" width="39" height="35" viewBox="0 0 39 35">
  <g id="Upload_Button" data-name="Upload Button" transform="translate(-6.952)">
    <g id="Grey_Outline" data-name="Grey Outline" transform="translate(6.952)" fill="none" stroke="#707070" stroke-width="1.5">
      <rect width="39" height="35" rx="7" stroke="none"/>
      <rect x="0.75" y="0.75" width="37.5" height="33.5" rx="6.25" fill="none"/>
    </g>
    <g id="Upload_Icon" data-name="Upload Icon" transform="translate(14.952 5)">
      <path id="Path_290" data-name="Path 290" d="M22,13.44l-.006-.009-.007-.011-.009-.015L21.97,13.4l-.011-.017,0-.006-.013-.019,0,0-.014-.021,0,0-.015-.021,0,0-.016-.022v0l-.016-.021,0,0-.016-.022v0l-.017-.022,0,0-.018-.023h0l-.019-.023-.9-1.1a1.779,1.779,0,0,0-.154-.166l-.023-.021-.019-.017a1.725,1.725,0,0,0-.693-.375l-.009,0-.077-.019-.025-.005a1.691,1.691,0,0,0-.2-.029l-.049,0-.049,0H13.477V5.886h1.59a.89.89,0,0,0,.673-1.472L12.39.537a1.555,1.555,0,0,0-2.353,0L6.687,4.414A.89.89,0,0,0,7.36,5.886H8.95V11.42H2.828l-.049,0-.049,0a1.73,1.73,0,0,0-1.185.614l-.016.019-.9,1.1-.019.023v0l-.017.022h0l-.017.022,0,0-.016.021,0,0-.016.021,0,0L.522,13.3l0,0-.015.021,0,0-.014.02,0,0-.013.02,0,.005L.457,13.4l0,.008-.009.014-.007.011-.005.008A2.806,2.806,0,0,0,0,14.93v6.446a2.849,2.849,0,0,0,2.845,2.845H19.581a2.849,2.849,0,0,0,2.845-2.845V14.93A2.8,2.8,0,0,0,22,13.44ZM7.484,4.94l3.269-3.784a.609.609,0,0,1,.921,0l3.27,3.784h-1.7a.714.714,0,0,0-.713.713v7.788a.033.033,0,0,1-.033.033H9.929a.033.033,0,0,1-.033-.033V5.653a.714.714,0,0,0-.713-.713Zm14,16.435a1.9,1.9,0,0,1-1.9,1.9H2.846a1.9,1.9,0,0,1-1.9-1.9V14.93a1.837,1.837,0,0,1,.035-.355H7.024L7.2,16.409a.954.954,0,0,0,.954.868h6.121a.955.955,0,0,0,.954-.868l.174-1.834h.825a.473.473,0,1,0,0-.946H15.29a.819.819,0,0,0-.819.745l-.185,1.946a.013.013,0,0,1-.012.011H8.153a.012.012,0,0,1-.012-.011l-.185-1.946a.819.819,0,0,0-.819-.745H1.47l.793-.971a.789.789,0,0,1,.614-.291H8.95v1.075a.98.98,0,0,0,.979.979H12.5a.98.98,0,0,0,.979-.979V12.366H19.55a.789.789,0,0,1,.614.292l.793.971h-.944a.473.473,0,1,0,0,.946h1.433a1.852,1.852,0,0,1,.034.355v6.446Zm0,0" transform="translate(0 0)" fill="#707070"/>
      <path id="Path_291" data-name="Path 291" d="M163.095,412.066h-6.731a.473.473,0,1,0,0,.946h6.731a.473.473,0,1,0,0-.946Zm0,0" transform="translate(-148.516 -392.573)" fill="#707070"/>
      <path id="Path_292" data-name="Path 292" d="M373.5,288.1a.473.473,0,1,0,0,.946h0a.473.473,0,1,0,0-.946Zm0,0" transform="translate(-355.384 -274.473)" fill="#707070"/>
    </g>
  </g>
</svg>
