<svg id="Settings_Icon" data-name="Settings Icon" xmlns="http://www.w3.org/2000/svg" width="23.913" height="23.913" viewBox="0 0 23.913 23.913">
  <path id="Path_153" data-name="Path 153" d="M131.939,138.33a6.13,6.13,0,1,1,1.968-11.935.471.471,0,1,1-.3.893,5.186,5.186,0,1,0,3.207,3.134.471.471,0,0,1,.886-.323,6.154,6.154,0,0,1-1.425,6.436A6.089,6.089,0,0,1,131.939,138.33Zm0,0" transform="translate(-119.994 -120.241)" fill="#0089ff"/>
  <path id="Path_154" data-name="Path 154" d="M14.011,23.913H9.9a.467.467,0,0,1-.467-.467v-2a9.732,9.732,0,0,1-2.408-1L5.615,21.864a.467.467,0,0,1-.66,0L2.049,18.958a.467.467,0,0,1,0-.66L3.46,16.886a9.731,9.731,0,0,1-1-2.408h-2A.467.467,0,0,1,0,14.011V9.9a.467.467,0,0,1,.467-.467h2a9.731,9.731,0,0,1,1-2.4L2.049,5.615a.467.467,0,0,1,0-.66L4.955,2.049a.467.467,0,0,1,.66,0L7.034,3.467a9.726,9.726,0,0,1,2.4-.993V.467A.467.467,0,0,1,9.9,0h4.11a.467.467,0,0,1,.467.467V2.478a9.73,9.73,0,0,1,2.4.994L18.3,2.049a.467.467,0,0,1,.661,0l2.906,2.906a.467.467,0,0,1,0,.66L20.441,7.038a9.731,9.731,0,0,1,.994,2.4h2.011a.467.467,0,0,1,.467.467v4.11a.467.467,0,0,1-.467.467H21.438a9.727,9.727,0,0,1-.993,2.4L21.864,18.3a.467.467,0,0,1,0,.66l-2.906,2.906a.467.467,0,0,1-.66,0l-1.415-1.415a9.735,9.735,0,0,1-2.4,1v2A.467.467,0,0,1,14.011,23.913Zm-3.643-.934h3.176v-1.9a.467.467,0,0,1,.365-.456,8.806,8.806,0,0,0,2.793-1.16.467.467,0,0,1,.581.064l1.344,1.344,2.246-2.246L19.526,17.28a.467.467,0,0,1-.065-.58,8.808,8.808,0,0,0,1.154-2.791.467.467,0,0,1,.456-.365h1.907V10.368h-1.91A.467.467,0,0,1,20.613,10a8.811,8.811,0,0,0-1.156-2.787.467.467,0,0,1,.064-.58l1.352-1.352L18.627,3.04,17.276,4.391a.467.467,0,0,1-.58.064A8.807,8.807,0,0,0,13.909,3.3a.467.467,0,0,1-.365-.456V.934H10.368V2.841A.467.467,0,0,1,10,3.3,8.808,8.808,0,0,0,7.212,4.451a.467.467,0,0,1-.58-.065L5.285,3.039,3.04,5.285,4.384,6.63a.467.467,0,0,1,.064.581A8.806,8.806,0,0,0,3.288,10a.467.467,0,0,1-.456.365H.934v3.176h1.9a.467.467,0,0,1,.456.365,8.8,8.8,0,0,0,1.158,2.8.467.467,0,0,1-.064.58l-1.34,1.34,2.246,2.246,1.34-1.34a.467.467,0,0,1,.58-.064A8.81,8.81,0,0,0,10,20.627a.467.467,0,0,1,.365.456v1.9Zm0,0" fill="#0089ff"/>
  <path id="Path_155" data-name="Path 155" d="M189.108,192.6a3.237,3.237,0,1,1,3.237-3.237A3.241,3.241,0,0,1,189.108,192.6Zm0-5.55a2.312,2.312,0,1,0,2.312,2.312A2.315,2.315,0,0,0,189.108,187.054Zm0,0" transform="translate(-177.158 -177.404)" fill="#0089ff"/>
  <path id="Path_156" data-name="Path 156" d="M330.827,161.93a.463.463,0,0,1-.327-.789l.022-.022a.463.463,0,0,1,.654.654l-.022.022A.461.461,0,0,1,330.827,161.93Zm0,0" transform="translate(-314.929 -153.461)" fill="#0089ff"/>
</svg>
