<svg id="Steering_Wheel_Icon" data-name="Steering Wheel Icon" xmlns="http://www.w3.org/2000/svg" width="23.913" height="23.913" viewBox="0 0 23.913 23.913">
  <g id="Group_398" data-name="Group 398">
    <path id="Path_138" data-name="Path 138" d="M20.411,3.5A11.957,11.957,0,0,0,5.19,2.1a.467.467,0,0,0,.529.77A11.021,11.021,0,1,1,2.868,5.72a.467.467,0,0,0-.77-.529,11.957,11.957,0,0,0,18.313,15.22,11.956,11.956,0,0,0,0-16.909Z" transform="translate(0 0)" fill="#0089ff"/>
    <path id="Path_139" data-name="Path 139" d="M59.767,69.535A9.768,9.768,0,0,0,69,56.571l0-.008a9.767,9.767,0,1,0-9.227,12.972Zm8.819-9.767q0,.34-.026.674a7.648,7.648,0,0,0-1.451.217,7.5,7.5,0,0,0-.555-3.828q.82.14,1.633.314A8.789,8.789,0,0,1,68.586,59.767Zm-3.173-3.115a6.516,6.516,0,0,1,.687,4.334,7.717,7.717,0,0,0-4.506,4.967,6.5,6.5,0,0,1-3.654,0,7.717,7.717,0,0,0-4.506-4.967,6.517,6.517,0,0,1,.687-4.334,40.158,40.158,0,0,1,11.293,0ZM52.425,60.658a7.65,7.65,0,0,0-1.451-.217q-.025-.334-.026-.674a8.789,8.789,0,0,1,.4-2.623q.813-.174,1.633-.314A7.5,7.5,0,0,0,52.425,60.658ZM51.1,61.4a6.742,6.742,0,0,1,6.2,6.712c0,.041,0,.082,0,.122A8.848,8.848,0,0,1,51.1,61.4Zm7.142,7.054c.005-.114.008-.228.008-.342a7.708,7.708,0,0,0-.082-1.122,7.462,7.462,0,0,0,3.2,0,7.709,7.709,0,0,0-.082,1.123c0,.114,0,.228.008.342a8.854,8.854,0,0,1-3.05,0Zm3.992-.219c0-.041,0-.082,0-.122a6.742,6.742,0,0,1,6.2-6.712,8.848,8.848,0,0,1-6.2,6.834ZM59.767,50.948a8.831,8.831,0,0,1,8.016,5.145,41.17,41.17,0,0,0-16.032,0A8.831,8.831,0,0,1,59.767,50.948Z" transform="translate(-47.811 -47.811)" fill="#0089ff"/>
  </g>
  <path id="Path_140" data-name="Path 140" d="M206,208.189A2.189,2.189,0,1,0,208.189,206,2.191,2.191,0,0,0,206,208.189Zm2.189-1.313a1.313,1.313,0,1,1-1.313,1.313A1.315,1.315,0,0,1,208.189,206.876Z" transform="translate(-196.233 -196.233)" fill="#0089ff"/>
  <path id="Path_141" data-name="Path 141" d="M72.486,72.927a.438.438,0,1,0-.309-.747h0a.438.438,0,0,0,.31.747Z" transform="translate(-68.894 -68.897)" fill="#0089ff"/>
</svg>
