<svg xmlns="http://www.w3.org/2000/svg" width="27.349" height="18.694" viewBox="0 0 27.349 18.694">
  <path id="Path_146" data-name="Path 146" d="M4.727,13.816H7.5a1.251,1.251,0,0,0,1.25-1.25V10.9A1.248,1.248,0,0,0,7.5,9.655H4.727A1.248,1.248,0,0,0,3.479,10.9v1.664a1.25,1.25,0,0,0,1.247,1.25ZM4.31,10.9a.416.416,0,0,1,.417-.417H7.5a.416.416,0,0,1,.417.417v1.664a.416.416,0,0,1-.417.417H4.727a.416.416,0,0,1-.417-.417Zm7.77,2.469h1.749a2.138,2.138,0,1,0,0-4.275H11.25v6.965h.834V13.368Zm0-3.441h1.749a1.3,1.3,0,1,1,0,2.608H12.08Zm11.205,5.557a.534.534,0,1,0,0-1.067h-1.6a.534.534,0,1,0,0,1.067Zm-4.805,0a.534.534,0,1,0,0-1.067h-1.6a.534.534,0,1,0,0,1.067Zm-4.272,2.671a.534.534,0,1,0-.534.534A.535.535,0,0,0,14.208,18.158ZM25.208,0H2.138A2.141,2.141,0,0,0,0,2.138V16.557a2.141,2.141,0,0,0,2.138,2.138h9.131a.534.534,0,0,0,0-1.067H2.138A1.068,1.068,0,0,1,1.07,16.56V7.48H26.278v9.08a1.068,1.068,0,0,1-1.067,1.067H16.08a.534.534,0,1,0,0,1.067h9.131a2.141,2.141,0,0,0,2.138-2.138V2.138A2.141,2.141,0,0,0,25.211,0h0ZM2.138,1.067H25.208a1.068,1.068,0,0,1,1.067,1.067V3.2H1.067V2.134A1.068,1.068,0,0,1,2.134,1.067h0ZM1.07,6.406V4.269H26.278V6.406H1.07Z" transform="translate(0)" fill="#0089ff"/>
</svg>
