<svg id="Wallet_Icon" data-name="Wallet Icon" xmlns="http://www.w3.org/2000/svg" width="23.913" height="23.913" viewBox="0 0 23.913 23.913">
  <g id="Group_136" data-name="Group 136" transform="translate(10.706 15.705)">
    <g id="Group_135" data-name="Group 135">
      <path id="Path_142" data-name="Path 142" d="M228.753,333.891a1.138,1.138,0,1,0,1.138,1.138A1.139,1.139,0,0,0,228.753,333.891Zm0,1.4a.263.263,0,1,1,.263-.263A.263.263,0,0,1,228.753,335.292Z" transform="translate(-227.615 -333.891)" fill="#0089ff"/>
    </g>
  </g>
  <g id="Group_138" data-name="Group 138" transform="translate(14.834 13.945)">
    <g id="Group_137" data-name="Group 137">
      <path id="Path_143" data-name="Path 143" d="M317.555,297.947a.438.438,0,1,0,.128.309A.441.441,0,0,0,317.555,297.947Z" transform="translate(-316.808 -297.819)" fill="#0089ff"/>
    </g>
  </g>
  <g id="Group_140" data-name="Group 140" transform="translate(0 0)">
    <g id="Group_139" data-name="Group 139">
      <path id="Path_144" data-name="Path 144" d="M21.585,6.725h-.5L14.493.137a.467.467,0,0,0-.661,0L12.145,1.825,5.394.016a.467.467,0,0,0-.572.33L3.113,6.725H1.969A1.964,1.964,0,0,0,.007,8.687c0,.026,0,.052,0,.077s0,.026,0,.039V21.578a2.338,2.338,0,0,0,2.335,2.335H21.584a2.338,2.338,0,0,0,2.335-2.335V9.06A2.338,2.338,0,0,0,21.585,6.725Zm-.417.934h.417a1.4,1.4,0,0,1,1.4,1.4V12.8a1.108,1.108,0,0,1-1.107,1.107H21.4V12.05a2.338,2.338,0,0,0-2.287-2.334ZM12.614,2.676h0l1.548-1.548L20.27,7.235,17.806,9.7h-.854L18.07,8.582a.467.467,0,0,0,0-.661.971.971,0,0,1,0-1.371.467.467,0,0,0,0-.661L15.509,3.328a.467.467,0,0,0-.661,0,.971.971,0,0,1-1.371,0,.467.467,0,0,0-.661,0L6.446,9.7H5.591ZM11.24,7.944A2.232,2.232,0,0,0,9.063,9.7h-1.3l5.421-5.421a1.91,1.91,0,0,0,1.95,0L17.12,6.26a1.911,1.911,0,0,0,0,1.95L15.631,9.7H13.417A2.232,2.232,0,0,0,11.24,7.944Zm1.2,1.755H10.036a1.294,1.294,0,0,1,2.409,0ZM5.1,8.872,6.335,4.256A1.909,1.909,0,0,0,8.024,3.28l2.1.563-3.05,3.05ZM5.6,1.039l5.778,1.548-.493.493L7.87,2.272A.467.467,0,0,0,7.3,2.6a.97.97,0,0,1-1.188.686.467.467,0,0,0-.572.33L3.9,9.714H3.279ZM1.969,7.659h.894L2.312,9.714H1.969a1.028,1.028,0,1,1,0-2.055ZM22.986,21.578a1.4,1.4,0,0,1-1.4,1.4H20.93a2.323,2.323,0,0,0,.468-1.4V19.7h.28a2.229,2.229,0,0,0,1.308-.423Zm0-4.118a1.309,1.309,0,0,1-1.308,1.308H11.87a1.962,1.962,0,0,1,0-3.923h1.415a.467.467,0,1,0,0-.934H11.87a2.9,2.9,0,1,0,0,5.791h8.594v1.876a1.4,1.4,0,0,1-1.38,1.4H3.183V17.72a.467.467,0,1,0-.934,0v5.256a1.4,1.4,0,0,1-1.308-1.4V10.357a1.949,1.949,0,0,0,1.027.292H19.062a1.4,1.4,0,0,1,1.4,1.4v1.861H17.087a.467.467,0,1,0,0,.934h4.792a2.028,2.028,0,0,0,1.107-.328Z" transform="translate(-0.007 0)" fill="#0089ff"/>
    </g>
  </g>
  <g id="Group_142" data-name="Group 142" transform="translate(2.101 15.47)">
    <g id="Group_141" data-name="Group 141">
      <path id="Path_145" data-name="Path 145" d="M48.753,330.516a.438.438,0,1,0,.128.31A.441.441,0,0,0,48.753,330.516Z" transform="translate(-48.006 -330.388)" fill="#0089ff"/>
    </g>
  </g>
</svg>
