<svg id="Group_397" data-name="Group 397" xmlns="http://www.w3.org/2000/svg" width="19.951" height="23.913" viewBox="0 0 19.951 23.913">
  <path id="Path_8" data-name="Path 8" d="M92.967,11.038a5.969,5.969,0,0,0,4.2-1.617,5.159,5.159,0,0,0,1.739-3.9,5.16,5.16,0,0,0-1.739-3.9,6.255,6.255,0,0,0-8.393,0,5.159,5.159,0,0,0-1.739,3.9,5.159,5.159,0,0,0,1.739,3.9A5.971,5.971,0,0,0,92.967,11.038ZM89.792,2.566a4.733,4.733,0,0,1,6.351,0,3.855,3.855,0,0,1,1.316,2.953,3.855,3.855,0,0,1-1.316,2.953,4.732,4.732,0,0,1-6.351,0,3.854,3.854,0,0,1-1.316-2.953,3.855,3.855,0,0,1,1.316-2.953Zm0,0" transform="translate(-83.137 0)" fill="#0089ff"/>
  <path id="Path_9" data-name="Path 9" d="M19.9,253.868a13.092,13.092,0,0,0-.194-1.448,11.015,11.015,0,0,0-.372-1.456,7.042,7.042,0,0,0-.625-1.358,5.151,5.151,0,0,0-.942-1.176,4.181,4.181,0,0,0-1.353-.814,4.856,4.856,0,0,0-1.727-.3,1.8,1.8,0,0,0-.936.38c-.281.175-.609.378-.975.6a5.71,5.71,0,0,1-1.262.533,5.1,5.1,0,0,1-3.087,0A5.7,5.7,0,0,1,7.17,248.3c-.363-.222-.691-.425-.976-.6a1.794,1.794,0,0,0-.936-.38,4.851,4.851,0,0,0-1.727.3,4.177,4.177,0,0,0-1.353.815,5.151,5.151,0,0,0-.941,1.176,7.055,7.055,0,0,0-.624,1.358,11.041,11.041,0,0,0-.371,1.456,13,13,0,0,0-.194,1.448c-.032.438-.048.893-.048,1.353A3.723,3.723,0,0,0,1.179,258.1a4.353,4.353,0,0,0,3.039,1.062H15.732a4.354,4.354,0,0,0,3.039-1.062,3.722,3.722,0,0,0,1.179-2.879c0-.462-.016-.917-.048-1.354Zm-2.1,3.259a2.934,2.934,0,0,1-2.073.692H4.218a2.934,2.934,0,0,1-2.073-.692,2.429,2.429,0,0,1-.744-1.906c0-.429.015-.853.044-1.26a11.729,11.729,0,0,1,.175-1.3,9.738,9.738,0,0,1,.327-1.283,5.743,5.743,0,0,1,.508-1.1,3.817,3.817,0,0,1,.692-.869,2.775,2.775,0,0,1,.9-.536,3.349,3.349,0,0,1,1.1-.2c.049.025.136.073.278.161.288.18.62.385.987.61A7.092,7.092,0,0,0,8,250.11a6.561,6.561,0,0,0,3.949,0,7.1,7.1,0,0,0,1.585-.679c.376-.23.7-.429.986-.609.142-.088.229-.136.278-.161a3.351,3.351,0,0,1,1.1.2,2.779,2.779,0,0,1,.9.536,3.807,3.807,0,0,1,.692.869,5.726,5.726,0,0,1,.508,1.1,9.714,9.714,0,0,1,.327,1.283,11.829,11.829,0,0,1,.175,1.3h0c.03.405.045.829.045,1.26a2.429,2.429,0,0,1-.744,1.906Zm0,0" transform="translate(0 -235.25)" fill="#0089ff"/>
</svg>
