<svg id="Book" xmlns="http://www.w3.org/2000/svg" width="25.826" height="21.146" viewBox="0 0 25.826 21.146">
  <path id="Path_163" data-name="Path 163" d="M255.219,88.725a.485.485,0,1,0-.485.485A.484.484,0,0,0,255.219,88.725Z" transform="translate(-241.821 -83.93)" fill="#0089ff"/>
  <path id="Path_164" data-name="Path 164" d="M255.8,129.407V117.132a.45.45,0,1,0-.9,0v12.274a.45.45,0,1,0,.9,0Z" transform="translate(-242.437 -111.564)" fill="#0089ff" fill-rule="evenodd"/>
  <path id="Path_165" data-name="Path 165" d="M25.389,1.857a10.865,10.865,0,0,1-3.14-.777A15.171,15.171,0,0,0,17.381,0a5.092,5.092,0,0,0-3.894,1.6,5,5,0,0,0-.594.79A5,5,0,0,0,12.3,1.6,5.092,5.092,0,0,0,8.405,0,15.177,15.177,0,0,0,3.536,1.079,10.865,10.865,0,0,1,.4,1.857.415.415,0,0,0-.02,2.27V18.934a.415.415,0,0,0,.417.414,11.371,11.371,0,0,0,3.412-.822,14.537,14.537,0,0,1,4.6-1.034,3.749,3.749,0,0,1,3.115,1.075.418.418,0,0,0,.588.026.411.411,0,0,0,.026-.584A4.668,4.668,0,0,0,8.4,16.664a15.177,15.177,0,0,0-4.869,1.079A13.978,13.978,0,0,1,.813,18.5V2.663a13.864,13.864,0,0,0,3-.8A14.537,14.537,0,0,1,8.4.827a4.1,4.1,0,0,1,4.089,2.642.417.417,0,0,0,.8,0A4.145,4.145,0,0,1,17.379.827a14.527,14.527,0,0,1,4.6,1.034,13.844,13.844,0,0,0,3,.8V18.5a13.978,13.978,0,0,1-2.723-.752,15.171,15.171,0,0,0-4.869-1.079,4.473,4.473,0,0,0-3.651,1.345.412.412,0,0,0,.026.584.419.419,0,0,0,.588-.026,3.58,3.58,0,0,1,3.035-1.075,14.527,14.527,0,0,1,4.6,1.034,11.357,11.357,0,0,0,3.412.822.415.415,0,0,0,.417-.414V2.27a.415.415,0,0,0-.417-.414Z" transform="translate(0.02)" fill="#0089ff" fill-rule="evenodd"/>
  <path id="Path_166" data-name="Path 166" d="M25.39,378.257a10.159,10.159,0,0,1-3.14-.844,14.159,14.159,0,0,0-4.869-1.173,4.925,4.925,0,0,0-3.765,1.594H12.171a4.925,4.925,0,0,0-3.765-1.594,14.165,14.165,0,0,0-4.869,1.173,10.156,10.156,0,0,1-3.14.844.451.451,0,0,0,0,.9,10.629,10.629,0,0,0,3.412-.893,13.57,13.57,0,0,1,4.6-1.124,4.1,4.1,0,0,1,3.279,1.447.4.4,0,0,0,.307.147h1.8a.4.4,0,0,0,.307-.147,4.093,4.093,0,0,1,3.279-1.447,13.56,13.56,0,0,1,4.6,1.124,10.614,10.614,0,0,0,3.412.893.451.451,0,0,0,0-.9Z" transform="translate(0.02 -358.01)" fill="#0089ff" fill-rule="evenodd"/>
  <path id="Path_167" data-name="Path 167" d="M255.219,378.475a.485.485,0,1,0-.485.485A.484.484,0,0,0,255.219,378.475Z" transform="translate(-241.821 -359.668)" fill="#0089ff"/>
</svg>
