<svg id="Calendar_Icon" data-name="Calendar Icon" xmlns="http://www.w3.org/2000/svg" width="23.913" height="22.045" viewBox="0 0 23.913 22.045">
  <g id="XMLID_1166_" transform="translate(0 0)">
    <g id="XMLID_644_" transform="translate(0 0)">
      <path id="XMLID_645_" d="M246.454,472.007a.454.454,0,1,0,.321.133A.458.458,0,0,0,246.454,472.007Z" transform="translate(-234.498 -450.871)" fill="#0089ff"/>
      <path id="XMLID_648_" d="M22.512,21.861h-.631v-.468a1.4,1.4,0,1,0-2.8,0v.468H4.834v-.468a1.4,1.4,0,1,0-2.8,0v.468H1.4a1.4,1.4,0,0,0-1.4,1.4V40.636a1.4,1.4,0,0,0,1.4,1.4H9.855a.467.467,0,1,0,0-.934H1.4a.468.468,0,0,1-.467-.467V30.267H22.979V40.636a.468.468,0,0,1-.467.467H14.058a.467.467,0,1,0,0,.934h8.453a1.4,1.4,0,0,0,1.4-1.4V23.262a1.4,1.4,0,0,0-1.4-1.4Zm-2.5-.467a.467.467,0,1,1,.934,0v1.868a.467.467,0,0,1-.934,0Zm-17.047,0a.467.467,0,1,1,.934,0v1.868a.467.467,0,0,1-.934,0ZM.934,29.333V23.262a.468.468,0,0,1,.467-.467h.631v.467a1.4,1.4,0,1,0,2.8,0v-.467H19.079v.467a1.4,1.4,0,1,0,2.8,0v-.467h.631a.468.468,0,0,1,.467.467v6.071H.934Z" transform="translate(0 -19.992)" fill="#0089ff"/>
    </g>
  </g>
</svg>
