<svg xmlns="http://www.w3.org/2000/svg" width="14.902" height="14.902" viewBox="0 0 14.902 14.902">
  <g id="Calendar" opacity="0.65">
    <g id="XMLID_416_">
      <path id="XMLID_419_" d="M14.2,10.342V2.052a.889.889,0,0,0-.888-.888h-2.11V.873a.873.873,0,1,0-1.746,0v.291H4.744V.873A.873.873,0,1,0,3,.873v.291H.888A.889.889,0,0,0,0,2.052v10.8a.889.889,0,0,0,.888.888H4.855a.291.291,0,0,0,0-.582H.888a.306.306,0,0,1-.306-.306V2.052a.306.306,0,0,1,.306-.306H3v.291a.873.873,0,1,0,1.746,0V1.746H9.459v.291a.873.873,0,0,0,1.746,0V1.746h2.11a.306.306,0,0,1,.306.306V3.493h-11a.291.291,0,1,0,0,.582h11V9.85a2.721,2.721,0,0,0-.815-.344V5.181a.291.291,0,0,0-.291-.291H1.688a.291.291,0,0,0-.291.291V12.05a.291.291,0,0,0,.291.291H9.436a2.715,2.715,0,0,0,.18.815H7.183a.291.291,0,0,0,0,.582H9.928a2.735,2.735,0,1,0,4.275-3.4ZM4.162,2.037a.291.291,0,1,1-.582,0V.873a.291.291,0,1,1,.582,0Zm6.461,0a.291.291,0,0,1-.582,0V.873a.291.291,0,1,1,.582,0ZM12.166,9.43a2.747,2.747,0,0,0-.4.029H10.641V7.771h1.583v1.66ZM9.46,11.758H8.475V10.041h1.583v.382A2.725,2.725,0,0,0,9.46,11.758ZM1.979,7.771H3.562V9.459H1.979Zm2.165,0H5.728V9.459H4.145Zm4.331,0h1.583V9.459H8.475ZM7.893,9.459H6.31V7.771H7.893Zm.582-2.27V5.472h1.583V7.189Zm-.582,0H6.31V5.472H7.893Zm-2.165,0H4.145V5.472H5.728Zm0,2.852v1.717H4.145V10.041Zm.582,0H7.893v1.717H6.31V10.041Zm5.914-2.852H10.641V5.472h1.583ZM3.562,5.472V7.189H1.979V5.472Zm-1.583,4.57H3.562v1.717H1.979ZM12.166,14.32a2.154,2.154,0,1,1,2.154-2.154A2.156,2.156,0,0,1,12.166,14.32Z"/>
      <path id="XMLID_1115_" d="M386.964,390.918l-.9.9-.4-.4a.291.291,0,1,0-.412.412l.606.606a.291.291,0,0,0,.412,0l1.106-1.106a.291.291,0,1,0-.412-.412Z" transform="translate(-373.956 -379.458)"/>
      <path id="XMLID_1116_" d="M197.091,452a.291.291,0,1,0,.206.085A.293.293,0,0,0,197.091,452Z" transform="translate(-191.072 -438.844)"/>
      <path id="XMLID_1120_" d="M40.5,120.5a.291.291,0,1,0-.206.085A.293.293,0,0,0,40.5,120.5Z" transform="translate(-38.836 -116.507)"/>
    </g>
  </g>
</svg>
