<svg id="Chat_Icon" data-name="Chat Icon" xmlns="http://www.w3.org/2000/svg" width="26.616" height="23.913" viewBox="0 0 26.616 23.913">
  <path id="Path_157" data-name="Path 157" d="M246.544,100a.544.544,0,1,0,.544.544A.544.544,0,0,0,246.544,100Zm0,0" transform="translate(-233.236 -94.812)" fill="#0089ff"/>
  <path id="Path_158" data-name="Path 158" d="M80.544,261.087a.544.544,0,1,0-.544-.544A.544.544,0,0,0,80.544,261.087Zm0,0" transform="translate(-75.652 -246.512)" fill="#0089ff"/>
  <path id="Path_159" data-name="Path 159" d="M17.467,0c-4.68,0-8.521,3.227-8.818,7.291C4.191,7.514,0,10.728,0,15.075a7.264,7.264,0,0,0,2.027,4.971,3.161,3.161,0,0,1-.835,2.979.52.52,0,0,0,.368.887,5.734,5.734,0,0,0,3.973-1.606,11.846,11.846,0,0,0,3.617.566c4.679,0,8.52-3.226,8.818-7.289a11.689,11.689,0,0,0,3.116-.555,5.734,5.734,0,0,0,3.973,1.606.52.52,0,0,0,.368-.887,3.161,3.161,0,0,1-.835-2.979A7.264,7.264,0,0,0,26.616,7.8C26.616,3.28,22.1,0,17.467,0ZM9.149,21.833a10.509,10.509,0,0,1-3.562-.613.52.52,0,0,0-.576.132,4.691,4.691,0,0,1-2.333,1.384A4.2,4.2,0,0,0,3,19.642a.519.519,0,0,0-.127-.22A6.247,6.247,0,0,1,1.04,15.075c0-3.663,3.714-6.758,8.11-6.758,4.151,0,7.8,2.887,7.8,6.758,0,3.726-3.5,6.758-7.8,6.758Zm14.6-9.689a.521.521,0,0,0-.127.22,4.2,4.2,0,0,0,.317,3.094A4.689,4.689,0,0,1,21.6,14.074a.52.52,0,0,0-.576-.132,10.241,10.241,0,0,1-3.063.6,7.441,7.441,0,0,0-2.809-5.185h6.781a.52.52,0,0,0,0-1.04H13.56A9.7,9.7,0,0,0,9.691,7.293c.3-3.491,3.672-6.253,7.776-6.253,4.4,0,8.11,3.095,8.11,6.758a6.247,6.247,0,0,1-1.829,4.347Zm0,0" transform="translate(0 0)" fill="#0089ff"/>
  <path id="Path_160" data-name="Path 160" d="M127.392,260h-6.848a.544.544,0,1,0,0,1.087h6.848a.544.544,0,0,0,0-1.087Zm0,0" transform="translate(-113.875 -246.512)" fill="#0089ff"/>
  <path id="Path_161" data-name="Path 161" d="M89.566,320H80.544a.544.544,0,1,0,0,1.087h9.022a.544.544,0,0,0,0-1.087Zm0,0" transform="translate(-75.949 -303.4)" fill="#0089ff"/>
  <path id="Path_162" data-name="Path 162" d="M293.392,100h-6.848a.544.544,0,1,0,0,1.087h6.848a.544.544,0,1,0,0-1.087Zm0,0" transform="translate(-271.403 -94.812)" fill="#0089ff"/>
</svg>
