<svg id="Cinema_Icon" data-name="Cinema Icon" xmlns="http://www.w3.org/2000/svg" width="39.127" height="35" viewBox="0 0 39.127 35">
  <path id="XMLID_1469_" d="M182.172,88.072a3.586,3.586,0,1,0-3.586,3.586A3.59,3.59,0,0,0,182.172,88.072Zm-5.844,0a2.258,2.258,0,1,1,2.258,2.258A2.26,2.26,0,0,1,176.328,88.072Z" transform="translate(-161.158 -80.669)" fill="#fff"/>
  <path id="XMLID_1605_" d="M68.438,172.453a3.563,3.563,0,1,0-1.624.393A3.562,3.562,0,0,0,68.438,172.453ZM66.113,171.4a2.257,2.257,0,1,1,1.722-.136A2.242,2.242,0,0,1,66.113,171.4Z" transform="translate(-59.025 -154.645)" fill="#fff"/>
  <path id="XMLID_1609_" d="M107.426,303.549a3.586,3.586,0,1,0-.793-5.009A3.567,3.567,0,0,0,107.426,303.549Zm.281-4.228a2.243,2.243,0,0,1,1.473-.9,2.29,2.29,0,0,1,.358-.028,2.258,2.258,0,1,1-1.831.931Z" transform="translate(-97.569 -275.589)" fill="#fff"/>
  <path id="XMLID_1659_" d="M247.655,304.233a3.584,3.584,0,1,0-2.906-1.477A3.567,3.567,0,0,0,247.655,304.233Zm-1.332-5.411a2.258,2.258,0,1,1-.5,3.153A2.242,2.242,0,0,1,246.323,298.822Z" transform="translate(-224.759 -275.59)" fill="#fff"/>
  <path id="XMLID_1678_" d="M289.227,165.849a3.585,3.585,0,1,0,2.735.215A3.562,3.562,0,0,0,289.227,165.849Zm2.133,1.4a2.242,2.242,0,1,1-1.022-.247A2.242,2.242,0,0,1,291.359,167.248Z" transform="translate(-264.067 -154.646)" fill="#fff"/>
  <path id="XMLID_1713_" d="M199.262,223.985a2.277,2.277,0,1,0-2.277,2.277A2.28,2.28,0,0,0,199.262,223.985Zm-3.226,0a.949.949,0,1,1,.949.949A.95.95,0,0,1,196.036,223.985Z" transform="translate(-179.527 -206.485)" fill="#fff"/>
  <path id="XMLID_1768_" d="M38.9,58.7a4.575,4.575,0,0,0-6.47,0,6.025,6.025,0,0,1-4.288,1.776H24.673a17.514,17.514,0,0,0,7.475-25.551.764.764,0,0,0-1.278.838,15.967,15.967,0,1,1-4.615-4.62.764.764,0,1,0,.839-1.278A17.5,17.5,0,1,0,17.5,62H28.144a7.543,7.543,0,0,0,5.369-2.224,3.047,3.047,0,0,1,4.309,0A.764.764,0,0,0,38.9,58.7Z" transform="translate(0 -27)" fill="#fff"/>
  <path id="XMLID_1769_" d="M374.594,92.547a.663.663,0,1,0-.469-.194A.669.669,0,0,0,374.594,92.547Z" transform="translate(-345.202 -86.955)" fill="#fff"/>
</svg>
