<svg xmlns="http://www.w3.org/2000/svg" width="20.108" height="25" viewBox="0 0 20.108 25">
  <g id="Disabled" transform="translate(-50.097)">
    <g id="Group_216" data-name="Group 216" transform="translate(50.097 6.521)">
      <g id="Group_215" data-name="Group 215">
        <path id="Path_202" data-name="Path 202" d="M70.132,149l-1.63-6.522a2.438,2.438,0,0,0-2.373-1.847H62.053V136a2.45,2.45,0,0,0-3.539-2.188l-3.261,1.63a2.427,2.427,0,0,0-1.346,2.187v1.507a6.792,6.792,0,1,0,9.771,6.373h.542l1.167,4.67A2.446,2.446,0,0,0,70.132,149ZM55.982,136.9l3.26-1.63a.819.819,0,0,1,.7-.015h0a.822.822,0,0,1,.49.744v3.433a6.788,6.788,0,0,0-1.636-.717v-.077a.812.812,0,1,0-1.625,0v3.883a.818.818,0,0,1-1.636,0v-4.891h0A.811.811,0,0,1,55.982,136.9Zm.908,13.5a5.163,5.163,0,0,1-2.984-9.376v1.5a2.443,2.443,0,1,0,4.886,0V140.44a5.14,5.14,0,0,1,1.846,1.249l.03.032c.063.068.126.137.185.209.011.014.022.028.034.042a5.164,5.164,0,0,1-4,8.433Zm11.066-.024a.814.814,0,0,1-.988-.593L65.647,144.5a.81.81,0,0,0-.791-.612H63.547a6.81,6.81,0,0,0-.555-1.636h3.137a.814.814,0,0,1,.791.617l1.63,6.521A.817.817,0,0,1,67.956,150.38Z" transform="translate(-50.097 -133.557)" fill="#0089ff"/>
      </g>
    </g>
    <g id="Group_218" data-name="Group 218" transform="translate(57.162)">
      <g id="Group_217" data-name="Group 217">
        <path id="Path_203" data-name="Path 203" d="M198.044,0A3.261,3.261,0,1,0,201.3,3.261,3.264,3.264,0,0,0,198.044,0Zm0,4.891a1.63,1.63,0,1,1,1.63-1.63A1.632,1.632,0,0,1,198.044,4.891Z" transform="translate(-194.783)" fill="#0089ff"/>
      </g>
    </g>
  </g>
</svg>
