<svg xmlns="http://www.w3.org/2000/svg" width="25" height="25" viewBox="0 0 25 25">
  <g id="Electric" transform="translate(0 0.001)">
    <path id="Path_121" data-name="Path 121" d="M107.565,288.942H106.3l1.619-1.618a.706.706,0,1,0-1-1l-2.824,2.824a.707.707,0,0,0,.5,1.205h1.261l-1.619,1.618a.706.706,0,0,0,1,1l2.824-2.824a.706.706,0,0,0-.5-1.205Zm0,0" transform="translate(-98.776 -271.708)" fill="#0089ff"/>
    <path id="Path_122" data-name="Path 122" d="M24.264,4.411h-.735V3.185a.735.735,0,1,0-1.471,0V4.411H20.588V3.185a.735.735,0,1,0-1.471,0V4.411h-.735a.735.735,0,0,0-.735.735V6.617a3.683,3.683,0,0,0,2.941,3.6V20.832a1.227,1.227,0,0,1-1.225,1.225h-.49a1.227,1.227,0,0,1-1.226-1.225v-4.9a2.7,2.7,0,0,0-2.7-2.7h-.245V2.7A2.7,2.7,0,0,0,12.01,0H2.7A2.7,2.7,0,0,0,0,2.7V24.264A.735.735,0,0,0,.735,25H13.97a.735.735,0,0,0,.735-.735V14.7h.245a1.227,1.227,0,0,1,1.226,1.225v4.9a2.7,2.7,0,0,0,2.7,2.7h.49a2.7,2.7,0,0,0,2.7-2.7V10.219A3.683,3.683,0,0,0,25,6.617V5.146a.735.735,0,0,0-.735-.735ZM2.7,1.47H12.01A1.227,1.227,0,0,1,13.235,2.7v7.6H1.47V2.7A1.227,1.227,0,0,1,2.7,1.47ZM13.235,23.528H1.47V11.764H13.235ZM23.529,6.617a2.206,2.206,0,1,1-4.412,0V5.881h4.412Zm0,0" transform="translate(0 0)" fill="#0089ff"/>
  </g>
</svg>
