<svg id="Log_out_Icon" data-name="Log out Icon" xmlns="http://www.w3.org/2000/svg" width="23.918" height="23.696" viewBox="0 0 23.918 23.696">
  <path id="Path_147" data-name="Path 147" d="M10.923,189.24a.463.463,0,0,0-.206-.385l-4.165-2.777a.463.463,0,0,0-.72.385v.926H.463a.463.463,0,0,0-.463.463v2.777a.463.463,0,0,0,.463.463H5.832v.926a.463.463,0,0,0,.72.385l4.165-2.777A.463.463,0,0,0,10.923,189.24Zm-4.165,1.912v-.524a.463.463,0,0,0-.463-.463H.926v-1.851H6.294a.463.463,0,0,0,.463-.463v-.524l2.868,1.912Z" transform="translate(0 -177.391)" fill="#0089ff"/>
  <path id="Path_148" data-name="Path 148" d="M336,216.463v2.777a.463.463,0,0,0,.926,0v-2.777a.463.463,0,1,0-.926,0Z" transform="translate(-320.449 -206.003)" fill="#0089ff"/>
  <circle id="Ellipse_23" data-name="Ellipse 23" cx="0.5" cy="0.5" r="0.5" transform="translate(22.918 11.608)" fill="#0089ff"/>
  <path id="Path_149" data-name="Path 149" d="M201.088.467A.463.463,0,0,0,200.624,0H186.463A.463.463,0,0,0,186,.463v7.22a.463.463,0,1,0,.926,0V.926h11.385L190.45,4.2a.463.463,0,0,0-.285.427v14.44a.463.463,0,0,0,.285.427l7.861,3.275H186.926V16.014a.463.463,0,1,0-.926,0v7.22a.463.463,0,0,0,.463.463h14.159a.464.464,0,0,0,.466-.467v-9.3a.463.463,0,1,0-.926,0v8.608l-9.071-3.78V4.937l9.071-3.78V9.766a.463.463,0,1,0,.926,0Z" transform="translate(-177.392 0)" fill="#0089ff"/>
</svg>
