<svg xmlns="http://www.w3.org/2000/svg" width="33.224" height="20.52" viewBox="0 0 33.224 20.52">
  <path id="Motorbike" d="M28.525,83.723a.659.659,0,0,0,.013-.13V80.136c0-2.542-2.514-3.7-3.843-3.956a.663.663,0,0,0-.79.65v3a2.648,2.648,0,0,0-1.328-.356h-4.61a2.653,2.653,0,0,0-2.656,2.644c0,.005,0,.011,0,.016H11.954a1.154,1.154,0,0,1-.9-.4L9.176,79.074a.665.665,0,0,0-.543-.281h-6.1a1.373,1.373,0,0,0-1.3.677,1.363,1.363,0,0,0,.221,1.439l2.279,3.2a6.633,6.633,0,1,0,9.018,8.583h6.579a3.127,3.127,0,0,0,1.061-.205,6.644,6.644,0,1,0,8.138-8.759ZM17.967,80.8h4.61a1.32,1.32,0,1,1,0,2.64h-4.61a1.32,1.32,0,1,1,0-2.64ZM6.648,95.364a5.3,5.3,0,1,1,3.242-9.5l-.962.967a3.951,3.951,0,1,0,1.684,3.233.664.664,0,0,0-1.328,0,2.633,2.633,0,1,1-1.311-2.273l-1.8,1.807a.663.663,0,0,0,.943.933l3.714-3.734a5.3,5.3,0,0,1-4.185,8.572Zm6.517-4a6.645,6.645,0,0,0-8.142-7.731l-2.492-3.5-.007-.009-.008-.011H8.288L9.968,82.5l.009.012a2.492,2.492,0,0,0,1.978.948h3.725a2.659,2.659,0,0,0,2.288,1.3h4.61a2.653,2.653,0,0,0,2.656-2.644c0-.083,0-.165-.012-.246a.66.66,0,0,0,.012-.123V77.73a2.744,2.744,0,0,1,1.977,2.407v1.32h-.618a.662.662,0,1,0,0,1.324h.618v.565l-.315.36,0,0-2.987,3.421a4.023,4.023,0,0,0-.607.7l-2.355,2.7c-.012.013-.023.027-.034.042a2.324,2.324,0,0,1-1.582.8H13.165Zm11.142-2.654,1.8,1.816a.663.663,0,0,0,.945-.93l-1.8-1.816a2.657,2.657,0,1,1-.945.93Zm2.27,6.655a5.315,5.315,0,0,1-5.024-3.56,2.832,2.832,0,0,0,.408-.428l.674-.772a3.993,3.993,0,1,0,3.957-4.511h-.02l1.073-1.229a5.3,5.3,0,0,1-1.069,10.5Z" transform="translate(0 -76.168)" fill="#0089ff"/>
</svg>
