<svg id="Parking_Subscription_Icon" data-name="Parking Subscription Icon" xmlns="http://www.w3.org/2000/svg" width="55.643" height="38.036" viewBox="0 0 55.643 38.036">
  <path id="Path_146" data-name="Path 146" d="M9.617,28.111h5.647a2.546,2.546,0,0,0,2.544-2.544V22.182a2.54,2.54,0,0,0-2.544-2.537H9.617a2.539,2.539,0,0,0-2.537,2.537v3.385a2.544,2.544,0,0,0,2.537,2.544Zm-.848-5.929a.847.847,0,0,1,.848-.848h5.647a.847.847,0,0,1,.848.848v3.385a.847.847,0,0,1-.848.848H9.617a.847.847,0,0,1-.848-.848Zm15.809,5.023h3.559a4.349,4.349,0,0,0,0-8.7H22.888V32.678h1.7V27.2Zm0-7h3.559a2.653,2.653,0,0,1,0,5.306H24.578Zm22.8,11.306a1.086,1.086,0,0,0,0-2.171H44.119a1.086,1.086,0,1,0,0,2.171Zm-9.777,0a1.086,1.086,0,0,0,0-2.171H34.342a1.086,1.086,0,0,0,0,2.171Zm-8.691,5.435a1.086,1.086,0,1,0-1.086,1.086A1.088,1.088,0,0,0,28.907,36.944ZM51.288,0H4.349A4.356,4.356,0,0,0,0,4.349V33.687a4.356,4.356,0,0,0,4.349,4.349H22.927a1.086,1.086,0,0,0,0-2.171H4.349a2.173,2.173,0,0,1-2.171-2.171V15.218H53.466V33.693a2.173,2.173,0,0,1-2.171,2.171H32.717a1.086,1.086,0,1,0,0,2.171H51.294a4.356,4.356,0,0,0,4.349-4.349V4.349A4.356,4.356,0,0,0,51.294,0h0ZM4.349,2.171H51.288a2.173,2.173,0,0,1,2.171,2.171V6.514H2.171V4.343A2.173,2.173,0,0,1,4.343,2.171h0ZM2.178,13.034V8.685H53.466v4.349H2.178Z" transform="translate(0)" fill="#fff"/>
</svg>
