<svg xmlns="http://www.w3.org/2000/svg" width="39" height="46.642" viewBox="0 0 39 46.642">
  <g id="PayPal_Logo" data-name="PayPal Logo" transform="translate(-159.5 -542.956)">
    <g id="Group_399" data-name="Group 399">
      <path id="Path_229" data-name="Path 229" d="M33.51,3.5C31.47,1.166,27.683,0,22.437,0H7.867a2.5,2.5,0,0,0-2.04,1.749L0,39.922A1.333,1.333,0,0,0,1.166,41.38H10.2L12.531,27.1v.583a2.5,2.5,0,0,1,2.04-1.749h4.37c8.1,0,16.671-13.861,16.937-13.861.291-3.789-.327-6.246-2.367-8.577Z" transform="translate(159.5 542.956)" fill="#fefefe" fill-rule="evenodd" opacity="0.9"/>
      <path id="Path_230" data-name="Path 230" d="M73.428,60.34h0v.874c-2.04,9.908-8.45,13.114-16.9,13.114H52.155a2.5,2.5,0,0,0-2.04,1.749L47.2,93.852a1.068,1.068,0,0,0,1.166,1.166h7.576c1.122,0,1.6-.682,1.749-1.749l1.457-9.033c.172-1.14.333-2.04,1.749-2.04h1.166c7.285,0,13.114-2.915,14.569-11.656.5-2.98.361-9.01-3.206-10.2Z" transform="translate(121.659 494.58)" fill="#fefefe" fill-rule="evenodd" opacity="0.8"/>
      <path id="Path_231" data-name="Path 231" d="M66.272,51.263a1.071,1.071,0,0,0-.874.291,1.6,1.6,0,0,0-.874,1.457L61.9,68.746a2.694,2.694,0,0,1,2.331-1.562h4.291c13.32.307,16.107-9.5,16.981-14.064-4.989-2.447-13.927-1.86-19.233-1.86Z" transform="translate(109.873 501.908)" fill="#fefefe" fill-rule="evenodd"/>
    </g>
  </g>
</svg>
