<?xml version="1.0" encoding="UTF-8" standalone="no"?>
<svg
   xmlns:dc="http://purl.org/dc/elements/1.1/"
   xmlns:cc="http://creativecommons.org/ns#"
   xmlns:rdf="http://www.w3.org/1999/02/22-rdf-syntax-ns#"
   xmlns:svg="http://www.w3.org/2000/svg"
   xmlns="http://www.w3.org/2000/svg"
   xmlns:sodipodi="http://sodipodi.sourceforge.net/DTD/sodipodi-0.dtd"
   xmlns:inkscape="http://www.inkscape.org/namespaces/inkscape"
   inkscape:version="1.0 (6e3e5246a0, 2020-05-07)"
   sodipodi:docname="PayPalLogoBlue.svg"
   id="svg7"
   version="1.1"
   viewBox="0 0 39 46.642"
   height="46.642"
   width="39">
  <metadata
     id="metadata13">
    <rdf:RDF>
      <cc:Work
         rdf:about="">
        <dc:format>image/svg+xml</dc:format>
        <dc:type
           rdf:resource="http://purl.org/dc/dcmitype/StillImage" />
        <dc:title></dc:title>
      </cc:Work>
    </rdf:RDF>
  </metadata>
  <defs
     id="defs11" />
  <sodipodi:namedview
     inkscape:current-layer="svg7"
     inkscape:window-maximized="1"
     inkscape:window-y="30"
     inkscape:window-x="0"
     inkscape:cy="23.320999"
     inkscape:cx="19.5"
     inkscape:zoom="18.09528"
     showgrid="false"
     id="namedview9"
     inkscape:window-height="1013"
     inkscape:window-width="1920"
     inkscape:pageshadow="2"
     inkscape:pageopacity="0"
     guidetolerance="10"
     gridtolerance="10"
     objecttolerance="10"
     borderopacity="1"
     bordercolor="#666666"
     pagecolor="#ffffff" />
  <g
     style="fill:#2a7fff"
     transform="translate(-159.5 -542.956)"
     data-name="PayPal Logo"
     id="PayPal_Logo">
    <g
       style="fill:#2a7fff"
       data-name="Group 399"
       id="Group_399">
      <path
         style="fill:#2a7fff"
         opacity="0.9"
         fill-rule="evenodd"
         fill="#fefefe"
         transform="translate(159.5 542.956)"
         d="M33.51,3.5C31.47,1.166,27.683,0,22.437,0H7.867a2.5,2.5,0,0,0-2.04,1.749L0,39.922A1.333,1.333,0,0,0,1.166,41.38H10.2L12.531,27.1v.583a2.5,2.5,0,0,1,2.04-1.749h4.37c8.1,0,16.671-13.861,16.937-13.861.291-3.789-.327-6.246-2.367-8.577Z"
         data-name="Path 229"
         id="Path_229" />
      <path
         style="fill:#2a7fff"
         opacity="0.8"
         fill-rule="evenodd"
         fill="#fefefe"
         transform="translate(121.659 494.58)"
         d="M73.428,60.34h0v.874c-2.04,9.908-8.45,13.114-16.9,13.114H52.155a2.5,2.5,0,0,0-2.04,1.749L47.2,93.852a1.068,1.068,0,0,0,1.166,1.166h7.576c1.122,0,1.6-.682,1.749-1.749l1.457-9.033c.172-1.14.333-2.04,1.749-2.04h1.166c7.285,0,13.114-2.915,14.569-11.656.5-2.98.361-9.01-3.206-10.2Z"
         data-name="Path 230"
         id="Path_230" />
      <path
         style="fill:#2a7fff"
         fill-rule="evenodd"
         fill="#fefefe"
         transform="translate(109.873 501.908)"
         d="M66.272,51.263a1.071,1.071,0,0,0-.874.291,1.6,1.6,0,0,0-.874,1.457L61.9,68.746a2.694,2.694,0,0,1,2.331-1.562h4.291c13.32.307,16.107-9.5,16.981-14.064-4.989-2.447-13.927-1.86-19.233-1.86Z"
         data-name="Path 231"
         id="Path_231" />
    </g>
  </g>
</svg>
