<svg id="Petrol" xmlns="http://www.w3.org/2000/svg" width="22.086" height="25" viewBox="0 0 22.086 25">
  <path id="Path_126" data-name="Path 126" d="M20.6,20.834a1.227,1.227,0,0,1-1.225,1.225h-.49a1.227,1.227,0,0,1-1.226-1.225v-4.9a2.7,2.7,0,0,0-2.7-2.7h-.245V2.7A2.7,2.7,0,0,0,12.02,0H2.706A2.7,2.7,0,0,0,.01,2.7V24.265A.735.735,0,0,0,.745,25H13.981a.735.735,0,0,0,.735-.735V14.706h.245a1.227,1.227,0,0,1,1.226,1.225v4.9a2.7,2.7,0,0,0,2.7,2.7h.49a2.7,2.7,0,0,0,2.7-2.7c0-4.186.1-8.38-.087-12.56-.108-1.534-.8-1.655-3.685-4.628a.419.419,0,0,0-.572-.03l-.35.342a.391.391,0,0,0-.01.633c1.577,1.571-.248-.256,1.563,1.549a2.189,2.189,0,0,0-1.2,3.022A2.249,2.249,0,0,0,20.6,10.22V20.834ZM10.229,16.258a2.739,2.739,0,0,1-.185,1.044,1.974,1.974,0,0,1-.537.765,2.351,2.351,0,0,1-.863.474,3.989,3.989,0,0,1-1.206.162H6.853v2.23a.148.148,0,0,1-.035.1.269.269,0,0,1-.116.07,1.1,1.1,0,0,1-.216.042,2.906,2.906,0,0,1-.343.016,2.977,2.977,0,0,1-.343-.016,1.258,1.258,0,0,1-.218-.042.232.232,0,0,1-.113-.07.162.162,0,0,1-.033-.1V14.642a.506.506,0,0,1,.133-.382.482.482,0,0,1,.349-.127H7.566c.166,0,.325.005.474.018a5.331,5.331,0,0,1,.539.081,2.39,2.39,0,0,1,.635.231,1.879,1.879,0,0,1,.55.424,1.768,1.768,0,0,1,.347.6,2.337,2.337,0,0,1,.118.769Zm-1.483.1a1.261,1.261,0,0,0-.131-.607.894.894,0,0,0-.321-.352,1.073,1.073,0,0,0-.4-.144,3,3,0,0,0-.434-.029H6.854v2.38H7.5a1.572,1.572,0,0,0,.574-.092.979.979,0,0,0,.378-.258,1.113,1.113,0,0,0,.223-.395,1.615,1.615,0,0,0,.076-.5ZM2.706,1.471H12.02A1.227,1.227,0,0,1,13.245,2.7v7.6H1.48V2.7A1.227,1.227,0,0,1,2.706,1.471ZM13.246,23.53H1.481V11.765H13.246ZM19.7,7.322a.872.872,0,1,1-.872.872A.872.872,0,0,1,19.7,7.322Z" transform="translate(-0.01 0)" fill="#0089ff" fill-rule="evenodd"/>
</svg>
