<svg xmlns="http://www.w3.org/2000/svg" width="35" height="35" viewBox="0 0 35 35">
  <g id="Group_397" data-name="Group 397" transform="translate(-48.294 -277)">
    <g id="Group_49" data-name="Group 49" transform="translate(66.912 285.612)">
      <g id="Group_48" data-name="Group 48">
        <path id="Path_75" data-name="Path 75" d="M262.2,123.04l-.379-1.247a2.709,2.709,0,0,0-5.13,0l-.379,1.247a7.005,7.005,0,0,0-.2,3.246,3.053,3.053,0,0,0,1.572,2.128l-.424,9.486a1.869,1.869,0,0,0,.472,1.453,2.062,2.062,0,0,0,2.913.131q.068-.062.13-.131a1.844,1.844,0,0,0,.472-1.414l-.427-9.527a3.053,3.053,0,0,0,1.57-2.127A7,7,0,0,0,262.2,123.04Zm-.967,3.041a1.871,1.871,0,0,1-1.225,1.41.59.59,0,0,0-.382.579l.449,9.963a.683.683,0,0,1-.177.535.912.912,0,0,1-1.283,0,.708.708,0,0,1-.174-.574l.445-9.924a.59.59,0,0,0-.382-.579,1.871,1.871,0,0,1-1.225-1.41,5.82,5.82,0,0,1,.162-2.695l.379-1.248a1.53,1.53,0,0,1,2.871,0l.379,1.248A5.828,5.828,0,0,1,261.234,126.081Z" transform="translate(-256.012 -119.955)" fill="#fff"/>
      </g>
    </g>
    <g id="Group_51" data-name="Group 51" transform="translate(58.184 285.615)">
      <g id="Group_50" data-name="Group 50">
        <path id="Path_76" data-name="Path 76" d="M141.9,120a.59.59,0,0,0-.59.59v5.068l-1.6,1.6a.59.59,0,0,0-.173.447l.516,10.329a.8.8,0,0,1-.223.6.831.831,0,0,1-1.175.005l-.005-.005a.8.8,0,0,1-.223-.6l.52-10.329a.59.59,0,0,0-.172-.447l-1.6-1.6V120.59a.59.59,0,0,0-1.18,0V125.9a.59.59,0,0,0,.173.417l1.585,1.586-.5,10.068a1.994,1.994,0,1,0,3.983.194q0-.1,0-.194l-.5-10.068,1.585-1.586a.59.59,0,0,0,.173-.417V120.59A.59.59,0,0,0,141.9,120Z" transform="translate(-136 -120)" fill="#fff"/>
      </g>
    </g>
    <g id="Group_57" data-name="Group 57" transform="translate(48.294 277)">
      <g id="Group_56" data-name="Group 56">
        <path id="Path_79" data-name="Path 79" d="M17.5,0A17.5,17.5,0,1,0,35,17.5,17.5,17.5,0,0,0,17.5,0Zm0,33.833A16.333,16.333,0,1,1,33.833,17.5,16.333,16.333,0,0,1,17.5,33.833Z" fill="#fff"/>
      </g>
    </g>
    <g id="Group_61" data-name="Group 61" transform="translate(72.992 286.676)">
      <g id="Group_60" data-name="Group 60">
        <path id="Path_81" data-name="Path 81" d="M341,134.264a.59.59,0,0,0-.831-.073l0,0a.59.59,0,0,0-.071.832,10.624,10.624,0,0,1-.626,14.37.59.59,0,1,0,.833.836A11.8,11.8,0,0,0,341,134.264Z" transform="translate(-339.295 -134.053)" fill="#fff"/>
      </g>
    </g>
    <g id="Group_64" data-name="Group 64" transform="translate(61.257 282.831)">
      <g id="Group_63" data-name="Group 63">
        <g id="Group_62" data-name="Group 62">
          <path id="Path_82" data-name="Path 82" d="M186.355,105.743h0Z" transform="translate(-185.764 -103.846)" fill="#fff"/>
          <path id="Path_83" data-name="Path 83" d="M185.712,80.355a11.909,11.909,0,0,0-6.947.427.59.59,0,1,0,.414,1.1,10.722,10.722,0,0,1,6.256-.384.59.59,0,1,0,.277-1.147Z" transform="translate(-178.382 -80.027)" fill="#fff"/>
        </g>
      </g>
    </g>
    <g id="Group_66" data-name="Group 66" transform="translate(54.116 287.292)">
      <g id="Group_65" data-name="Group 65">
        <path id="Path_84" data-name="Path 84" d="M84.268,157.178A10.623,10.623,0,0,1,83.2,143.433a.59.59,0,0,0-.944-.709l-.01.014a11.8,11.8,0,0,0,1.185,15.276.591.591,0,1,0,.836-.836Z" transform="translate(-79.989 -142.488)" fill="#fff"/>
      </g>
    </g>
  </g>
</svg>
