<svg xmlns="http://www.w3.org/2000/svg" width="21.094" height="25" viewBox="0 0 21.094 25">
  <g id="Secure" transform="translate(-40 0)">
    <path id="Path_204" data-name="Path 204" d="M60.492,4.048,50.921.075a.976.976,0,0,0-.749,0L40.6,4.048a.977.977,0,0,0-.6.9V9.78A16.354,16.354,0,0,0,50.178,24.928a.977.977,0,0,0,.738,0A16.354,16.354,0,0,0,61.094,9.78V4.95A.977.977,0,0,0,60.492,4.048ZM59.141,9.78a14.4,14.4,0,0,1-8.594,13.182A14.4,14.4,0,0,1,41.953,9.78V5.6l8.594-3.568L59.141,5.6Zm-9.673,3.292,4.2-4.2a.977.977,0,1,1,1.381,1.381l-4.888,4.888a.977.977,0,0,1-1.381,0l-2.729-2.729a.977.977,0,1,1,1.381-1.381Z" transform="translate(0 0)" fill="#0089ff"/>
  </g>
</svg>
