<svg id="Small_Car" data-name="Small Car" xmlns="http://www.w3.org/2000/svg" width="41.033" height="20.52" viewBox="0 0 41.033 20.52">
  <path id="Path_99" data-name="Path 99" d="M37.769,119.611l-.05-.019c-.206-.076-.423-.147-.654-.213-2.693-.766-8.283-.775-8.52-.775h-1.18l-2.326-3.9c-1.061-1.77-2.055-2.728-4.271-2.728H11.79A5.532,5.532,0,0,0,7.184,115.1l-.008.015-1.062,2.033-4,.482-.043.007A2.4,2.4,0,0,0,0,120.109v4.875a3.528,3.528,0,0,0,2.936,3.277,4.4,4.4,0,0,0,8.73.572h17.74a4.4,4.4,0,0,0,8.672,0H40.3a.733.733,0,0,0,.733-.733v-4.267C41.033,122.431,40.444,120.615,37.769,119.611Zm1.337,2.663H37.4v-.718a.773.773,0,0,1,.2-.434A3.509,3.509,0,0,1,39.106,122.274ZM25.659,118.6H11a.317.317,0,0,1-.26-.1c-.05-.074-.01-.209.016-.28l.79-1.64a1.588,1.588,0,0,1,1.62-.955H23.883ZM1.465,120.755H2.2a.734.734,0,0,1,.733.733v.748H1.465Zm5.865,10.277a2.933,2.933,0,1,1,2.932-2.933A2.937,2.937,0,0,1,7.331,131.032Zm26.412,0a2.933,2.933,0,1,1,2.932-2.933A2.937,2.937,0,0,1,33.743,131.032Zm5.824-3.666H38.078a4.4,4.4,0,0,0-8.672,0H11.666a4.4,4.4,0,0,0-8.535-.579c-.684-.215-1.666-.713-1.666-1.8V123.7h2.2a.733.733,0,0,0,.733-.733v-1.481a2.2,2.2,0,0,0-2.2-2.2H1.81a1.179,1.179,0,0,1,.5-.208l4.313-.52a.733.733,0,0,0,.61-.392L8.47,115.8a4.087,4.087,0,0,1,3.32-2.357h8.979a2.649,2.649,0,0,1,2.066.718H13.162a3.03,3.03,0,0,0-2.938,1.781l-.8,1.668c-.007.014-.013.029-.019.044a1.738,1.738,0,0,0,.12,1.667,1.761,1.761,0,0,0,1.475.749h17.55a47.655,47.655,0,0,1,7.612.593,2.058,2.058,0,0,0-.224.895v1.451a.733.733,0,0,0,.733.733h2.9c0,.031,0,.062,0,.093v3.534Z" transform="translate(0 -111.977)" fill="#0089ff"/>
  <path id="Path_100" data-name="Path 100" d="M131.431,224.413H112.769a.716.716,0,0,0,0,1.432h18.662a.716.716,0,1,0,0-1.432Z" transform="translate(-101.558 -214.097)" fill="#0089ff"/>
  <path id="Path_101" data-name="Path 101" d="M59.868,265.714a.716.716,0,0,0-.716.716.688.688,0,1,1-.688-.688.716.716,0,0,0,0-1.432,2.121,2.121,0,1,0,2.121,2.121A.716.716,0,0,0,59.868,265.714Z" transform="translate(-51.299 -250.21)" fill="#0089ff"/>
  <path id="Path_102" data-name="Path 102" d="M348.238,265.714a.716.716,0,0,0-.716.716.688.688,0,1,1-.688-.688.716.716,0,0,0,0-1.432,2.121,2.121,0,1,0,2.121,2.121A.716.716,0,0,0,348.238,265.714Z" transform="translate(-312.927 -250.21)" fill="#0089ff"/>
</svg>
