<svg id="SUV" xmlns="http://www.w3.org/2000/svg" width="39.1" height="20.52" viewBox="0 0 39.1 20.52">
  <path id="Path_95" data-name="Path 95" d="M103.714,149.205H86.584a.7.7,0,1,0,0,1.395h17.13a.7.7,0,0,0,0-1.395Z" transform="translate(-74.406 -138.267)" fill="#0089ff"/>
  <path id="Path_96" data-name="Path 96" d="M54.553,175.788a.7.7,0,0,0-.7.7.67.67,0,1,1-.67-.67.7.7,0,1,0,0-1.395,2.065,2.065,0,1,0,2.065,2.065A.7.7,0,0,0,54.553,175.788Z" transform="translate(-44.199 -160.151)" fill="#0089ff"/>
  <path id="Path_97" data-name="Path 97" d="M226.375,175.788a.7.7,0,0,0-.7.7.67.67,0,1,1-.67-.67.7.7,0,0,0,0-1.395,2.065,2.065,0,1,0,2.065,2.065A.7.7,0,0,0,226.375,175.788Z" transform="translate(-192.846 -160.151)" fill="#0089ff"/>
  <path id="Path_98" data-name="Path 98" d="M38.9,78.909a.685.685,0,0,0-.479-.2h0a3.433,3.433,0,0,0-3.429-3.429H27.928L25.761,71.07c-.007-.013-.014-.026-.021-.039-.993-1.657-1.924-2.555-4-2.555H8.006a4.454,4.454,0,0,0-2.827,1.171L3.946,70.88a4.519,4.519,0,0,0-1.13,2.339H1.372A1.373,1.373,0,0,0,0,74.59v5.491a1.373,1.373,0,0,0,1.372,1.372H2.8a3.106,3.106,0,0,0,2.128,2.623,4.117,4.117,0,1,0,8.154.833H28.159a4.117,4.117,0,0,0,8.233,0h.293A2.418,2.418,0,0,0,39.1,82.495v-3.1A.687.687,0,0,0,38.9,78.909Zm-3.912-.195v-.663a.687.687,0,0,1,.686-.686h.874a2.048,2.048,0,0,1,.5,1.344v0Zm-8.6-3.436H12.4l1.3-2.519.007-.014a1.487,1.487,0,0,1,1.516-.894h9.4ZM4.147,73.707a3.2,3.2,0,0,1,.738-1.823h5.188L8.287,75.277H4.218a.67.67,0,0,0-.07,0V73.707Zm-2.776.884h1.4v5.491h-1.4ZM8.966,87.626a2.746,2.746,0,1,1,2.745-2.746A2.749,2.749,0,0,1,8.966,87.626Zm23.309,0A2.746,2.746,0,1,1,35.02,84.88,2.749,2.749,0,0,1,32.275,87.626Zm5.452-5.131a1.044,1.044,0,0,1-1.043,1.043h-.518a4.116,4.116,0,0,0-7.783,0H12.857a4.115,4.115,0,0,0-7.439-.744,1.756,1.756,0,0,1-1.271-1.767V76.646c.023,0,.047,0,.07,0H8.7a.686.686,0,0,0,.607-.366l2.509-4.765a.686.686,0,0,0-.607-1.005H6.268a3.239,3.239,0,0,1,1.738-.663H21.741a2.5,2.5,0,0,1,1.891.631h-8.41a2.835,2.835,0,0,0-2.745,1.656l-1.8,3.48a.687.687,0,0,0-.077.315v.033a.686.686,0,0,0,.686.686H34.167a2.05,2.05,0,0,0-.552,1.4V79.4a.686.686,0,0,0,.686.686h0l3.426-.006v2.414Z" transform="translate(0 -68.477)" fill="#0089ff"/>
</svg>
