<svg id="Bus" xmlns="http://www.w3.org/2000/svg" width="38.29" height="20.52" viewBox="0 0 38.29 20.52">
  <path id="Path_112" data-name="Path 112" d="M38.285,111.366a.679.679,0,0,0-.09-.426L35.574,106.5c-.9-1.5-1.747-2.376-3.445-2.524a.687.687,0,0,0-.175-.022H2.051A2.054,2.054,0,0,0,0,106v11.458a3.292,3.292,0,0,0,2.74,3.058,4.1,4.1,0,0,0,8.147.533H27.441a4.1,4.1,0,0,0,8.092,0h2.073a.684.684,0,0,0,.684-.684v-8.921A.686.686,0,0,0,38.285,111.366Zm-2.694,2.194a.685.685,0,0,1,.684-.684h.648v1.346H35.591Zm.931-2.764H30.7l-1.7-3.4h5.516ZM1.367,112.164H2.1v2.059H1.367Zm0-1.367v-3.416h22.51a1.48,1.48,0,0,1,1.51.888l1.219,2.528Zm5.473,12.309a2.737,2.737,0,1,1,2.736-2.737A2.74,2.74,0,0,1,6.841,123.105Zm24.647,0a2.737,2.737,0,1,1,2.736-2.737A2.74,2.74,0,0,1,31.487,123.105Zm4.046-3.421a4.1,4.1,0,0,0-8.093,0H10.886a4.1,4.1,0,0,0-7.965-.539c-.639-.2-1.554-.662-1.554-1.685V115.59H2.1a1.369,1.369,0,0,0,1.367-1.368v-2.059H27.68a.684.684,0,0,0,.684-.684v-.033a.684.684,0,0,0-.068-.3l-1.678-3.479a2.826,2.826,0,0,0-2.74-1.658H1.367V106a.685.685,0,0,1,.684-.684H31.587a2.462,2.462,0,0,1,1.964.705H27.891a.684.684,0,0,0-.612.989l2.317,4.638a.684.684,0,0,0,.662.511h4.515a2.043,2.043,0,0,0-.55,1.4v1.346a.684.684,0,0,0,.684.684h2.015v4.094Z" transform="translate(0 -103.952)" fill="#0089ff"/>
  <path id="Path_113" data-name="Path 113" d="M90.733,224.118H65.679a.7.7,0,0,0,0,1.391H90.733a.7.7,0,0,0,0-1.391Z" transform="translate(-59.347 -213.86)" fill="#0089ff"/>
  <path id="Path_114" data-name="Path 114" d="M59.767,273.7a.7.7,0,0,0-.7.7.669.669,0,1,1-.668-.669.7.7,0,1,0,0-1.391,2.06,2.06,0,1,0,2.06,2.06A.7.7,0,0,0,59.767,273.7Z" transform="translate(-51.443 -258.05)" fill="#0089ff"/>
  <path id="Path_115" data-name="Path 115" d="M348.137,273.7a.7.7,0,0,0-.7.7.669.669,0,1,1-.668-.669.7.7,0,1,0,0-1.391,2.06,2.06,0,1,0,2.06,2.06A.7.7,0,0,0,348.137,273.7Z" transform="translate(-315.405 -258.05)" fill="#0089ff"/>
</svg>
