<svg id="Cargo_truck" data-name="Cargo truck" xmlns="http://www.w3.org/2000/svg" width="34.383" height="20.52" viewBox="0 0 34.383 20.52">
  <path id="Path_103" data-name="Path 103" d="M59.243,293.433a.589.589,0,0,0-.589.589.566.566,0,1,1-.566-.566.589.589,0,1,0,0-1.178,1.745,1.745,0,1,0,1.745,1.745A.589.589,0,0,0,59.243,293.433Z" transform="translate(-52.193 -277.039)" fill="#0089ff"/>
  <path id="Path_104" data-name="Path 104" d="M139.284,293.433a.589.589,0,0,0-.589.589.566.566,0,1,1-.566-.566.589.589,0,1,0,0-1.178,1.745,1.745,0,1,0,1.745,1.745A.589.589,0,0,0,139.284,293.433Z" transform="translate(-126.07 -277.039)" fill="#0089ff"/>
  <path id="Path_105" data-name="Path 105" d="M347.613,293.433a.589.589,0,0,0-.589.589.566.566,0,1,1-.566-.566.589.589,0,1,0,0-1.178,1.745,1.745,0,1,0,1.745,1.745A.589.589,0,0,0,347.613,293.433Z" transform="translate(-318.519 -277.039)" fill="#0089ff"/>
  <path id="Path_106" data-name="Path 106" d="M34.37,103.266l-1.434-6.7a2.886,2.886,0,0,0-2.752-2.257h-3.59v-1.2A1.208,1.208,0,0,0,25.387,91.9H1.207A1.208,1.208,0,0,0,0,93.11V108.2A1.208,1.208,0,0,0,1.207,109.4H2.466a3.62,3.62,0,0,0,6.589,1.4,3.62,3.62,0,0,0,6.589-1.4h8.571a3.621,3.621,0,0,0,7.141,0H33.78a.6.6,0,0,0,.6-.6v-5.41A.613.613,0,0,0,34.37,103.266Zm-1.336-.477H29.091a.608.608,0,0,0-.123-.013.616.616,0,0,1-.616-.616V97.918H31.99ZM1.207,93.11h24.18v12.981a3.619,3.619,0,0,0-1.173,2.108H15.643a3.62,3.62,0,0,0-6.589-1.4,3.62,3.62,0,0,0-6.589,1.4H1.207Zm4.83,18.107A2.415,2.415,0,1,1,8.451,108.8,2.418,2.418,0,0,1,6.036,111.217Zm6.037,0a2.415,2.415,0,1,1,2.415-2.415A2.418,2.418,0,0,1,12.073,111.217Zm15.712,0A2.415,2.415,0,1,1,30.2,108.8,2.418,2.418,0,0,1,27.785,111.217Zm3.57-3.018a3.619,3.619,0,0,0-4.762-2.816V95.52h3.59a1.7,1.7,0,0,1,1.545,1.191H27.749a.6.6,0,0,0-.6.6v4.846a1.825,1.825,0,0,0,1.673,1.816.6.6,0,0,0,.149.019h4.209v.6h-.587a.6.6,0,1,0,0,1.207h.587v2.4H31.355Z" transform="translate(0 -91.903)" fill="#0089ff"/>
  <path id="Path_107" data-name="Path 107" d="M32.6,125.038H52.634a.589.589,0,0,0,0-1.178H32.6a.589.589,0,0,0,0,1.178Z" transform="translate(-29.653 -121.506)" fill="#0089ff"/>
</svg>
